<?xml version="1.0" encoding="utf-8"?>
<!-- Generator: Adobe Illustrator 16.0.4, SVG Export Plug-In . SVG Version: 6.00 Build 0)  -->
<!DOCTYPE svg PUBLIC "-//W3C//DTD SVG 1.1//EN" "http://www.w3.org/Graphics/SVG/1.1/DTD/svg11.dtd">
<svg version="1.1" id="Layer_1" xmlns="http://www.w3.org/2000/svg" xmlns:xlink="http://www.w3.org/1999/xlink" x="0px" y="0px"
	 width="100px" height="100px" viewBox="0 0 100 100" enable-background="new 0 0 100 100" xml:space="preserve">
<g>
	<circle fill="none" stroke="#C49330" stroke-width="1.8" stroke-miterlimit="10" cx="50" cy="50" r="48"/>
	<g>
		<g>
			<path fill="#C49330" d="M34.438,57.684h-6.359v-15c0-1.26-1.022-2.281-2.285-2.281c-1.254,0-2.276,1.021-2.276,2.281v17.281
				c0,1.26,1.022,2.282,2.276,2.282h8.645c1.261,0,2.283-1.022,2.283-2.282C36.722,58.709,35.699,57.684,34.438,57.684z
				 M41.098,40.402c-1.256,0-2.278,1.021-2.278,2.281v17.281c0,1.26,1.022,2.282,2.278,2.282c1.259,0,2.28-1.022,2.28-2.282V42.684
				C43.378,41.424,42.356,40.402,41.098,40.402z M78.165,53.604c1.256,0,2.278-1.022,2.278-2.278c0-1.257-1.022-2.285-2.278-2.285
				h-6.361v-4.079h6.361c1.256,0,2.278-1.019,2.278-2.278s-1.022-2.281-2.278-2.281h-8.645c-1.256,0-2.28,1.021-2.28,2.284
				c0,0,0,0,0,0.007v8.633c0,0.003,0,0.003,0,0.003v8.636c0,1.26,1.024,2.282,2.28,2.282h8.645c1.256,0,2.278-1.022,2.278-2.282
				c0-1.256-1.022-2.281-2.278-2.281h-6.361v-4.079H78.165z M61.898,40.402c-1.255,0-2.278,1.021-2.278,2.281v10.693l-8.86-12.061
				c-0.426-0.576-1.111-0.914-1.821-0.914c-0.242,0-0.489,0.037-0.724,0.116c-0.93,0.311-1.56,1.184-1.56,2.165v17.281
				c0,1.26,1.025,2.282,2.281,2.282c1.258,0,2.28-1.022,2.28-2.282V49.275l8.859,12.06c0.424,0.57,1.11,0.912,1.819,0.912
				c0.244,0,0.487-0.038,0.728-0.117c0.933-0.311,1.554-1.178,1.554-2.165V42.684C64.177,41.424,63.158,40.402,61.898,40.402z"/>
		</g>
	</g>
</g>
</svg>
