<?xml version="1.0" encoding="iso-8859-1"?>
<!-- Generator: Adobe Illustrator 16.0.4, SVG Export Plug-In . SVG Version: 6.00 Build 0)  -->
<!DOCTYPE svg PUBLIC "-//W3C//DTD SVG 1.1//EN" "http://www.w3.org/Graphics/SVG/1.1/DTD/svg11.dtd">
<svg version="1.1" id="Layer_1" xmlns="http://www.w3.org/2000/svg" xmlns:xlink="http://www.w3.org/1999/xlink" x="0px" y="0px"
	 width="166.532px" height="239.807px" viewBox="337.678 177.735 166.532 239.807"
	 style="enable-background:new 337.678 177.735 166.532 239.807;" xml:space="preserve">
<g>
	<path style="fill:#242420;" d="M504.191,261.931c-0.209-10.795-1.807-21.334-4.811-31.757c-3.099-10.365-7.609-20.617-15.81-29.555
		c-15.852-18.265-39.698-23.297-60.432-22.858c-10.75,0.244-21.312,1.821-31.82,4.762c-10.455,3.038-20.854,7.438-29.977,15.492
		c-18.635,15.56-24.016,39.091-23.646,59.761c0.201,10.712,1.804,21.294,4.824,31.876c3.117,10.528,7.654,21.057,15.885,30.326
		c15.925,18.945,39.834,24.606,60.58,24.293c10.756-0.169,21.314-1.784,31.81-4.871c10.44-3.182,20.815-7.831,29.901-16.211
		C499.268,306.973,504.575,282.738,504.191,261.931z M370.469,295.729l43.01-77.149l43.172,61.019
		c-1.912-0.047-5.035-0.117-8.735-0.17l-33.248-47.994c-0.199-0.284-0.521-0.444-0.873-0.422c-0.345,0.021-0.654,0.217-0.814,0.521
		l-33.975,64.195H370.469z M381.266,295.677l32.699-61.781l3.483,5.028c-2.026,4.319-21.473,45.647-26.375,52.172
		C388.416,294.637,383.73,295.48,381.266,295.677z M466.374,295.743l-54.891-0.014v-6.723l59.91-0.419L466.374,295.743z
		 M411.848,287.029c0.604-1.508,2.043-3.988,5.182-4.714c7.281-1.68,41.195-0.696,41.541-0.688c0.371,0.029,0.722-0.191,0.896-0.519
		c0.178-0.331,0.153-0.733-0.062-1.038l-44.116-62.351h8.11l48.023,68.893L411.848,287.029z"/>
	<g>
		<path style="fill:#242420;" d="M412.385,417.068h-6.874c-0.767,0-1.392-0.183-1.874-0.546c-0.48-0.363-0.839-0.831-1.076-1.401
			l-2.891-8.172h-17.055l-2.891,8.172c-0.196,0.492-0.541,0.938-1.032,1.343c-0.491,0.403-1.11,0.604-1.857,0.604h-6.935
			l16.729-42.808h9.058L412.385,417.068z M384.771,400.812h12.744l-4.631-13.099c-0.276-0.688-0.567-1.494-0.872-2.419
			s-0.604-1.918-0.898-2.979c-0.274,1.082-0.56,2.09-0.855,3.023c-0.294,0.934-0.58,1.745-0.854,2.434L384.771,400.812z"/>
		<path style="fill:#242420;" d="M438.842,393.438c-0.235,0.314-0.474,0.557-0.708,0.723c-0.236,0.168-0.57,0.251-1.003,0.251
			c-0.395,0-0.772-0.112-1.137-0.34c-0.363-0.227-0.781-0.473-1.255-0.736c-0.472-0.267-1.031-0.512-1.68-0.738
			c-0.65-0.226-1.458-0.34-2.421-0.34c-1.219,0-2.276,0.222-3.172,0.665c-0.896,0.442-1.636,1.076-2.228,1.902
			c-0.589,0.825-1.026,1.829-1.312,3.009c-0.286,1.181-0.429,2.508-0.429,3.983c0,3.106,0.625,5.485,1.873,7.14
			c1.25,1.651,2.955,2.478,5.117,2.478c0.748,0,1.393-0.062,1.935-0.19c0.539-0.128,1.012-0.29,1.416-0.487
			c0.402-0.195,0.752-0.413,1.046-0.648c0.297-0.235,0.575-0.451,0.842-0.648c0.266-0.196,0.531-0.357,0.797-0.487
			c0.266-0.127,0.565-0.19,0.898-0.19c0.63,0,1.122,0.235,1.476,0.708l2.331,2.951c-0.865,1.003-1.789,1.833-2.771,2.491
			c-0.985,0.659-2.002,1.181-3.056,1.563c-1.051,0.384-2.119,0.649-3.2,0.796c-1.082,0.148-2.152,0.222-3.216,0.222
			c-1.869,0-3.639-0.349-5.312-1.047c-1.67-0.696-3.136-1.716-4.396-3.054c-1.26-1.337-2.257-2.979-2.993-4.927
			c-0.738-1.947-1.107-4.169-1.107-6.667c0-2.224,0.325-4.288,0.974-6.195c0.649-1.908,1.604-3.561,2.862-4.956
			s2.816-2.493,4.676-3.29s4.008-1.195,6.446-1.195c2.319,0,4.355,0.374,6.105,1.121c1.75,0.748,3.324,1.83,4.722,3.245
			L438.842,393.438z"/>
		<path style="fill:#242420;" d="M468.272,417.068c-0.767,0-1.352-0.107-1.755-0.324c-0.404-0.217-0.734-0.668-0.988-1.357
			l-0.648-1.917c-0.768,0.668-1.511,1.253-2.229,1.755c-0.718,0.503-1.466,0.926-2.242,1.27c-0.776,0.345-1.604,0.604-2.479,0.782
			c-0.875,0.177-1.843,0.266-2.905,0.266c-1.337,0-2.558-0.177-3.659-0.531c-1.1-0.354-2.05-0.881-2.847-1.579
			c-0.795-0.696-1.411-1.566-1.843-2.609c-0.435-1.042-0.65-2.242-0.65-3.601c0-1.119,0.286-2.235,0.856-3.349
			c0.569-1.11,1.549-2.124,2.935-3.038c1.389-0.914,3.236-1.677,5.547-2.286c2.312-0.608,5.207-0.954,8.688-1.032v-1.563
			c0-1.907-0.402-3.31-1.21-4.204c-0.807-0.895-1.967-1.342-3.481-1.342c-1.12,0-2.055,0.132-2.803,0.396
			c-0.746,0.267-1.401,0.551-1.961,0.855c-0.562,0.306-1.087,0.59-1.578,0.854c-0.492,0.268-1.062,0.399-1.711,0.399
			c-0.572,0-1.048-0.143-1.433-0.429c-0.383-0.284-0.701-0.623-0.957-1.018l-1.445-2.597c1.789-1.613,3.766-2.818,5.929-3.614
			s4.503-1.194,7.021-1.194c1.81,0,3.428,0.296,4.853,0.886c1.427,0.59,2.637,1.411,3.629,2.463
			c0.993,1.053,1.757,2.307,2.286,3.762c0.531,1.456,0.797,3.049,0.797,4.779v19.117H468.272z M457.563,412.053
			c1.337,0,2.508-0.239,3.51-0.723c1.004-0.481,1.997-1.226,2.98-2.228v-4.721c-1.987,0.079-3.64,0.246-4.955,0.502
			c-1.319,0.256-2.366,0.574-3.145,0.959c-0.775,0.383-1.325,0.825-1.65,1.326c-0.325,0.502-0.487,1.048-0.487,1.638
			c0,1.182,0.33,2.018,0.988,2.51C455.463,411.808,456.384,412.053,457.563,412.053z"/>
	</g>
</g>
</svg>
