<?xml version="1.0" encoding="iso-8859-1"?>
<!-- Generator: Adobe Illustrator 16.0.4, SVG Export Plug-In . SVG Version: 6.00 Build 0)  -->
<!DOCTYPE svg PUBLIC "-//W3C//DTD SVG 1.1//EN" "http://www.w3.org/Graphics/SVG/1.1/DTD/svg11.dtd">
<svg version="1.1" id="Layer_1" xmlns="http://www.w3.org/2000/svg" xmlns:xlink="http://www.w3.org/1999/xlink" x="0px" y="0px"
	 width="18.935px" height="18.464px" viewBox="0 0 18.935 18.464" style="enable-background:new 0 0 18.935 18.464;"
	 xml:space="preserve">
<g id="Your_Icon">
	<path style="fill:#030303;" d="M0,7.498c0,4.142,3.376,7.493,7.547,7.493c4.164,0,7.545-3.352,7.545-7.493
		C15.092,3.357,11.711,0,7.547,0C3.376,0,0,3.357,0,7.498z M2.391,7.498c0-2.83,2.306-5.121,5.156-5.121
		c2.845,0,5.155,2.291,5.155,5.121c0,2.831-2.311,5.122-5.155,5.122C4.696,12.62,2.391,10.329,2.391,7.498z M12.859,14.374
		l3.245,3.697c0.524,0.521,0.86,0.525,1.392,0l1.042-1.033c0.513-0.512,0.545-0.842,0-1.383L14.8,12.448L12.859,14.374z"/>
</g>
</svg>
