<?xml version="1.0" encoding="iso-8859-1"?>
<!-- Generator: Adobe Illustrator 18.0.0, SVG Export Plug-In . SVG Version: 6.00 Build 0)  -->
<!DOCTYPE svg PUBLIC "-//W3C//DTD SVG 1.1//EN" "http://www.w3.org/Graphics/SVG/1.1/DTD/svg11.dtd">
<svg version="1.1" xmlns="http://www.w3.org/2000/svg" xmlns:xlink="http://www.w3.org/1999/xlink" x="0px" y="0px"
	 viewBox="0 0 300 300" style="enable-background:new 0 0 300 300;" xml:space="preserve">
<g id="bg">
</g>
<g id="_x32__x5F_m_x5F_main">
</g>
<g id="_x31__x5F_m_x5F_show" style="display:none;">
</g>
<g id="_x31__x5F_new_x5F_home">
</g>
<g id="_x32__x5F_menu">
</g>
<g id="_x33__x5F_search">
</g>
<g id="no_x5F_noews">
	<path style="fill:#D29817;" d="M290.936,107.452c-0.007,0-0.018,0-0.025,0c-0.025,0-0.051,0-0.076,0l-100.936,0.828l-32.3-95.63
		c-1.25-3.697-4.72-6.184-8.609-6.184c-0.033,0-0.061,0-0.094,0c-3.932,0.04-7.391,2.606-8.58,6.354l-30.399,96.252L8.986,110.239
		c-3.932,0.047-7.387,2.613-8.569,6.365c-1.175,3.751,0.192,7.835,3.39,10.12l82.146,58.658L55.872,281.73
		c-1.171,3.755,0.202,7.835,3.405,10.116c1.579,1.124,3.426,1.688,5.269,1.688c1.901,0,3.798-0.593,5.403-1.778l81.17-60.002
		l82.345,58.383c1.576,1.117,3.415,1.673,5.255,1.673c1.905,0,3.809-0.593,5.414-1.785c3.159-2.342,4.456-6.451,3.209-10.185
		l-31.982-95.739l80.823-60.157c2.309-1.648,3.817-4.351,3.817-7.402C300.007,111.526,295.952,107.46,290.936,107.452z"/>
</g>
<g id="menu">
</g>
<g id="campaign">
</g>
<g id="box_x5F_slice" style="display:none;">
</g>
</svg>
