<?xml version="1.0" encoding="iso-8859-1"?>
<!-- Generator: Adobe Illustrator 18.0.0, SVG Export Plug-In . SVG Version: 6.00 Build 0)  -->
<!DOCTYPE svg PUBLIC "-//W3C//DTD SVG 1.1//EN" "http://www.w3.org/Graphics/SVG/1.1/DTD/svg11.dtd">
<svg version="1.1" xmlns="http://www.w3.org/2000/svg" xmlns:xlink="http://www.w3.org/1999/xlink" x="0px" y="0px"
	 viewBox="0 0 300 300" style="enable-background:new 0 0 300 300;" xml:space="preserve">
<g id="bg">
</g>
<g id="_x32__x5F_m_x5F_main">
</g>
<g id="_x31__x5F_m_x5F_show" style="display:none;">
</g>
<g id="_x31__x5F_new_x5F_home">
</g>
<g id="_x32__x5F_menu">
</g>
<g id="_x33__x5F_search">
</g>
<g id="no_x5F_noews">
	<g>
		<path style="fill:#D29817;" d="M264.26,73.295H35.74c-8.827,0-16.011,7.173-16.011,15.987v36.256
			c0,8.814,7.184,15.987,16.011,15.987h3.02v127.073c0,8.815,7.183,15.987,16.011,15.987h190.456
			c8.827,0,16.011-7.172,16.011-15.987V141.525h3.02c8.827,0,16.011-7.173,16.011-15.987V89.3
			C280.288,80.486,273.087,73.295,264.26,73.295z M32.542,125.538V89.3c0-1.767,1.429-3.212,3.199-3.212h91.118v42.643H45.176H35.74
			C33.971,128.732,32.542,127.304,32.542,125.538z M51.573,268.598V141.525h75.285v130.267H54.789
			C53.021,271.792,51.573,270.365,51.573,268.598z M248.427,268.598c0,1.767-1.447,3.194-3.199,3.194h-72.087V141.543h75.285
			V268.598z M267.458,125.538c0,1.766-1.43,3.211-3.199,3.211h-9.436h-81.683V86.089h91.118c1.769,0,3.199,1.445,3.199,3.212
			V125.538z"/>
		<path style="fill:#D29817;" d="M144.531,66.944c3.163,0,5.004-0.054,5.004-0.054c0.071,0,0.143-0.036,0.143-0.036
			c0.125,0,0.197,0.036,0.197,0.036s1.966,0.054,5.182,0.054c9.882,0,29.038-0.464,46.283-3.568
			c24.643-4.443,37.133-13.096,37.133-25.764c0-13.489-10.364-22.196-26.43-22.196c-15.94,0-41.101,9.349-62.258,35.078
			c-20.8-25.729-45.532-35.078-61.222-35.078c-15.832,0-26.072,8.707-26.072,22.196C62.491,50.992,76.734,66.944,144.531,66.944z
			 M212.043,28.225c5.093,0,13.617,1.213,13.617,9.386c0,5.246-9.935,10.17-26.608,13.168c-12.241,2.212-25.911,2.997-35.382,3.247
			C180.11,36.29,199.052,28.225,212.043,28.225z M88.563,28.225c12.741,0,31.308,8.065,47.426,25.818
			c-35.632-0.91-60.686-7.548-60.686-16.433C75.304,29.439,83.613,28.225,88.563,28.225z"/>
	</g>
</g>
<g id="menu">
</g>
<g id="campaign">
</g>
<g id="box_x5F_slice" style="display:none;">
</g>
</svg>
