<?xml version="1.0" encoding="iso-8859-1"?>
<!-- Generator: Adobe Illustrator 18.0.0, SVG Export Plug-In . SVG Version: 6.00 Build 0)  -->
<!DOCTYPE svg PUBLIC "-//W3C//DTD SVG 1.1//EN" "http://www.w3.org/Graphics/SVG/1.1/DTD/svg11.dtd">
<svg version="1.1" xmlns="http://www.w3.org/2000/svg" xmlns:xlink="http://www.w3.org/1999/xlink" x="0px" y="0px"
	 viewBox="0 0 300 300" style="enable-background:new 0 0 300 300;" xml:space="preserve">
<g id="bg">
</g>
<g id="_x32__x5F_m_x5F_main">
</g>
<g id="_x31__x5F_m_x5F_show" style="display:none;">
</g>
<g id="_x31__x5F_new_x5F_home">
</g>
<g id="_x32__x5F_menu">
</g>
<g id="_x33__x5F_search">
</g>
<g id="no_x5F_noews">
	<g>
		<path style="fill:#D29817;" d="M74.982,56.413c-20.609,0-37.491,20.586-37.491,46.803c0,26.199,16.882,46.803,37.491,46.803
			c7.525,0,14.767-3.748,22.302-9.379c-1.886-5.613-3.535-11.225-3.535-18.685c0-16.857,5.356-30.221,12.873-43.329
			c-5.613-13.09-18.485-22.232-31.64-22.232V56.413z M224.963,56.413c-13.101,0-26.01,9.123-31.631,22.249
			c7.517,13.109,12.9,26.455,12.9,43.293c0,7.496-1.657,13.127-3.516,18.721c7.471,5.595,14.739,9.343,22.247,9.343
			c20.636,0,37.519-20.568,37.519-46.785c0-26.199-16.883-46.784-37.519-46.784V56.413z M149.982,75.152
			c-20.709,0-37.473,20.933-37.473,46.803c0,25.815,16.763,46.785,37.473,46.785c20.709,0,37.509-20.97,37.509-46.785
			C187.491,96.085,170.691,75.152,149.982,75.152z M35.742,150.019C17.001,151.884,0,166.857,0,187.443v37.461h56.25v-18.74
			c0-14.973,5.859-28.082,15.226-37.424C58.365,166.857,45.136,161.225,35.742,150.019L35.742,150.019z M264.24,150.019
			c-9.366,11.206-22.613,16.838-35.742,18.721c9.375,9.342,15.252,22.451,15.252,37.424v18.74H300v-37.461
			c0-20.586-17.001-35.559-35.742-37.424H264.24z M110.724,168.74c-18.732,1.865-35.742,16.819-35.742,37.424v37.442h149.981
			v-37.442c0-20.605-16.983-35.559-35.742-37.424c-11.224,11.225-24.243,18.703-39.239,18.703
			C135.004,187.443,121.976,179.965,110.724,168.74z"/>
	</g>
</g>
<g id="menu">
</g>
<g id="campaign">
</g>
<g id="box_x5F_slice" style="display:none;">
</g>
</svg>
