<?xml version="1.0" encoding="iso-8859-1"?>
<!-- Generator: Adobe Illustrator 18.0.0, SVG Export Plug-In . SVG Version: 6.00 Build 0)  -->
<!DOCTYPE svg PUBLIC "-//W3C//DTD SVG 1.1//EN" "http://www.w3.org/Graphics/SVG/1.1/DTD/svg11.dtd">
<svg version="1.1" xmlns="http://www.w3.org/2000/svg" xmlns:xlink="http://www.w3.org/1999/xlink" x="0px" y="0px"
	 viewBox="0 0 300 300" style="enable-background:new 0 0 300 300;" xml:space="preserve">
<g id="bg">
</g>
<g id="_x32__x5F_m_x5F_main">
</g>
<g id="_x31__x5F_m_x5F_show" style="display:none;">
</g>
<g id="_x31__x5F_new_x5F_home">
</g>
<g id="_x32__x5F_menu">
</g>
<g id="_x33__x5F_search">
</g>
<g id="no_x5F_noews">
	<g>
		<path style="fill:#D29817;" d="M68.874,293.859c-3.388,0-6.64-1.041-9.407-3.01c-5.729-4.08-8.172-11.335-6.078-18.052
			l26.919-86.223L6.797,134.083c-5.721-4.087-8.154-11.342-6.053-18.056c2.118-6.721,8.262-11.284,15.293-11.367l90.325-1.046
			l27.203-86.133c2.13-6.714,8.282-11.267,15.311-11.339h0.166c6.961,0,13.136,4.433,15.367,11.033l28.905,85.581l90.46-0.742
			c8.974,0.014,16.236,7.296,16.224,16.234c0,5.191-2.516,10.103-6.735,13.147l-72.267,53.79l28.62,85.673
			c2.231,6.678-0.07,13.983-5.727,18.176c-2.807,2.085-6.15,3.189-9.663,3.189c-3.379,0-6.623-1.033-9.379-2.986l-73.691-52.247
			l-72.637,53.695C75.704,292.762,72.37,293.859,68.874,293.859z M149.041,21.33c-0.463,0.005-0.858,0.299-0.995,0.733
			l-30.513,96.611l-101.318,1.172c-0.449,0.006-0.844,0.299-0.98,0.731c-0.131,0.416,0.024,0.882,0.389,1.143l82.459,58.882
			l-30.195,96.717c-0.134,0.429,0.021,0.894,0.388,1.154c0.225,0.16,0.45,0.195,0.597,0.195c0.228,0,0.436-0.069,0.618-0.203
			l81.477-60.229l82.659,58.606c0.176,0.125,0.377,0.189,0.596,0.189c0.158,0,0.392-0.034,0.612-0.197
			c0.366-0.272,0.514-0.738,0.371-1.165l-32.104-96.104l81.265-60.485c0.132-0.095,0.439-0.364,0.439-0.844
			c0.001-0.574-0.458-1.034-1.023-1.035l-101.343,0.831l-32.424-95.997C149.876,21.615,149.483,21.33,149.041,21.33z"/>
	</g>
</g>
<g id="menu">
</g>
<g id="campaign">
</g>
<g id="box_x5F_slice" style="display:none;">
</g>
</svg>
