<?xml version="1.0" encoding="iso-8859-1"?>
<!-- Generator: Adobe Illustrator 16.0.4, SVG Export Plug-In . SVG Version: 6.00 Build 0)  -->
<!DOCTYPE svg PUBLIC "-//W3C//DTD SVG 1.1//EN" "http://www.w3.org/Graphics/SVG/1.1/DTD/svg11.dtd">
<svg version="1.1" xmlns="http://www.w3.org/2000/svg" xmlns:xlink="http://www.w3.org/1999/xlink" x="0px" y="0px" width="80px"
	 height="560px" viewBox="0 0 80 560" style="enable-background:new 0 0 80 560;" xml:space="preserve">
<g id="Layer_3">
</g>
<g id="_x32__x5F_mobile_x5F_top_x5F_van">
	<g>
		<defs>
			<rect id="SVGID_15_" x="-960.618" y="-585.54" width="278.089" height="472.943"/>
		</defs>
		<clipPath id="SVGID_2_">
			<use xlink:href="#SVGID_15_"  style="overflow:visible;"/>
		</clipPath>
		<g style="clip-path:url(#SVGID_2_);">
			
				<image style="overflow:visible;" width="1440" height="900" xlink:href="../../../source images/&#x87A2;&#x5E55;&#x5FEB;&#x7167; 2015-05-19 &#x4E0B;&#x5348;1.52.58.png"  transform="matrix(1.0617 0 0 1.0617 -1089.8496 -784.1548)">
			</image>
		</g>
	</g>
	<g>
		<defs>
			<rect id="SVGID_43_" x="235.538" y="-218.118" width="87.166" height="86.852"/>
		</defs>
		<clipPath id="SVGID_4_">
			<use xlink:href="#SVGID_43_"  style="overflow:visible;"/>
		</clipPath>
		<g transform="matrix(1 0 0 1 0 0)" style="clip-path:url(#SVGID_4_);">
			
				<image style="overflow:visible;" width="1440" height="900" xlink:href="../../../source images/&#x87A2;&#x5E55;&#x5FEB;&#x7167; 2015-05-19 &#x4E0B;&#x5348;1.52.58.png"  transform="matrix(0.5489 0 0 0.546 -131.6729 -353.5303)">
			</image>
		</g>
	</g>
	<g>
		<defs>
			<rect id="SVGID_47_" x="408.706" y="-218.118" width="87.166" height="86.852"/>
		</defs>
		<clipPath id="SVGID_6_">
			<use xlink:href="#SVGID_47_"  style="overflow:visible;"/>
		</clipPath>
		<g transform="matrix(1 0 0 1 -7.629395e-06 -3.051758e-05)" style="clip-path:url(#SVGID_6_);">
			
				<image style="overflow:visible;" width="1440" height="900" xlink:href="../../../source images/&#x87A2;&#x5E55;&#x5FEB;&#x7167; 2015-05-19 &#x4E0B;&#x5348;1.52.58.png"  transform="matrix(0.5489 0 0 0.546 -99.7471 -384.167)">
			</image>
		</g>
	</g>
	<g>
		<g>
			
				<ellipse style="fill:none;stroke:#754C29;stroke-width:7.255;stroke-linecap:round;stroke-miterlimit:10;" cx="36.336" cy="516.968" rx="16.323" ry="16.332"/>
			
				<line style="fill:none;stroke:#754C29;stroke-width:7.255;stroke-linecap:round;stroke-miterlimit:10;" x1="48.484" y1="527.854" x2="59.988" y2="539.362"/>
		</g>
		<circle style="fill:none;" cx="40" cy="520" r="40"/>
	</g>
</g>
<g id="_x31__x5F_m_x5F_show_x5F_list" style="display:none;">
</g>
<g id="new_x5F_home_1_">
</g>
<g id="UI_SVG_icon">
	<g>
		<defs>
			<circle id="SVGID_123_" cx="40" cy="120" r="40"/>
		</defs>
		<clipPath id="SVGID_8_">
			<use xlink:href="#SVGID_123_"  style="overflow:visible;"/>
		</clipPath>
		<path style="clip-path:url(#SVGID_8_);fill:#754C29;" d="M62.565,116.527H25.814l9.826-9.825c1.356-1.356,1.356-3.555,0-4.911
			c-1.355-1.354-3.554-1.354-4.91,0l-15.752,15.753l0,0c-0.162,0.161-0.306,0.34-0.432,0.532c-0.053,0.075-0.088,0.16-0.134,0.241
			c-0.065,0.117-0.135,0.23-0.188,0.355c-0.041,0.102-0.064,0.206-0.096,0.311c-0.035,0.112-0.078,0.222-0.102,0.338
			c-0.034,0.179-0.047,0.357-0.054,0.537c-0.001,0.047-0.013,0.093-0.013,0.14c0,0.057,0.013,0.105,0.014,0.159
			c0.011,0.173,0.019,0.345,0.056,0.518c0.021,0.124,0.066,0.238,0.105,0.358c0.029,0.097,0.05,0.195,0.089,0.291
			c0.056,0.135,0.13,0.258,0.202,0.383c0.041,0.072,0.069,0.146,0.117,0.215c0.127,0.194,0.273,0.373,0.438,0.536l15.748,15.747
			c0.678,0.679,1.566,1.02,2.457,1.02c0.887,0,1.776-0.341,2.455-1.02c1.354-1.354,1.354-3.553,0-4.908l-9.826-9.825h36.749
			c1.917,0,3.473-1.556,3.473-3.471C66.038,118.083,64.482,116.527,62.565,116.527z"/>
	</g>
	<g>
		<defs>
			<circle id="SVGID_125_" cx="40" cy="199.45" r="40"/>
		</defs>
		<clipPath id="SVGID_10_">
			<use xlink:href="#SVGID_125_"  style="overflow:visible;"/>
		</clipPath>
		<g style="clip-path:url(#SVGID_10_);">
			<g>
				<path style="fill:#C3002F;" d="M24.688,204.959c-0.89,1.417-1.772,2.836-2.66,4.256c-1.512,2.41-3.02,4.824-4.529,7.234
					c-0.521,0.831-1.038,1.664-1.551,2.5c6.1-0.579,12.904-1.479,15.92-2.259c0.225-3.624,0.465-6.663,1.379-10.91L24.688,204.959z"
					/>
				<path style="fill:#C9920E;" d="M44.214,189.358l-6.487,10.947c0,0,10.662-0.312,16.592-4.262
					c2.479-1.652,4.754-4.491,6.261-7.117c2.258-3.95,3.684-8.387,4.325-12.927C64.904,176,56.581,182.142,44.214,189.358"/>
				<path style="fill:#111820;" d="M38.708,208.231c-0.379-1.532-2.872-3.315-2.872-3.315s-2.331,9.061-3.004,12.479
					c-0.551,2.781,3.778,6.18,6.02,6.604c0.909-1.601,1.564-3.324,1.682-5.081C40.09,215.625,38.708,208.231,38.708,208.231"/>
				<path style="fill:#111820;" d="M33.186,190.316c0.875-1.191,3.672,0.518,4.859,2.872c1.184,2.366-2.553,8.288-2.553,8.288
					s-3.824-2.197-4.318-4.29C30.685,195.087,32.303,191.508,33.186,190.316"/>
				<path style="fill:#C9920E;" d="M30.67,197.304c-0.271-1.158,0.031-2.589,0.388-3.698c-10.356-0.527-17.509-3.301-17.509-3.301
					c2.254,6.785,8.36,11.127,15.493,10.809c0.815-0.032,2.63-0.328,4.099-0.635C31.727,199.348,30.895,198.276,30.67,197.304"/>
				<path style="fill:#C3002F;" d="M58.467,222.243l-11.688-21.562l-10.084,2.548c0.182,0.718,0.342,1.41,0.477,2.091
					c0.792,0.714,1.788,1.766,2.045,2.787v0.014l0.004,0.017c0.01,0.074,1.391,7.441,1.824,10.71l0.009,0.05l-0.003,0.053
					c-0.029,0.431-0.092,0.871-0.178,1.318C46.328,221.357,54.146,222.401,58.467,222.243"/>
			</g>
		</g>
	</g>
	<g>
		<defs>
			<circle id="SVGID_127_" cx="40" cy="280" r="40"/>
		</defs>
		<clipPath id="SVGID_12_">
			<use xlink:href="#SVGID_127_"  style="overflow:visible;"/>
		</clipPath>
		<g id="Your_Icon" style="clip-path:url(#SVGID_12_);">
			<path style="fill:none;stroke:#754C29;stroke-width:1.5;stroke-miterlimit:10;" d="M36.75,270.316v-8.666
				c0-5.418-1.148-6.502-6.5-6.502l-8.666-0.064c-5.156,0-6.5,1.213-6.5,6.5v8.666c0,5.354,1.082,6.5,6.5,6.5h8.666
				C35.666,276.75,36.75,275.666,36.75,270.316z M36.75,298.482v-8.666c0-5.418-1.148-6.5-6.5-6.5l-8.666-0.066
				c-5.156,0-6.5,1.215-6.5,6.498v8.668c0,5.352,1.082,6.5,6.5,6.5h8.666C35.666,304.916,36.75,303.832,36.75,298.482z
				 M64.916,270.316v-8.666c0-5.418-1.148-6.502-6.5-6.502l-8.666-0.064c-5.156,0-6.5,1.213-6.5,6.5v8.666
				c0,5.354,1.084,6.5,6.5,6.5h8.666C63.834,276.75,64.916,275.666,64.916,270.316z M64.916,298.482v-8.666
				c0-5.418-1.148-6.5-6.5-6.5l-8.666-0.066c-5.156,0-6.5,1.215-6.5,6.498v8.668c0,5.352,1.084,6.5,6.5,6.5h8.666
				C63.834,304.916,64.916,303.832,64.916,298.482z"/>
		</g>
	</g>
	<g>
		<defs>
			<circle id="SVGID_129_" cx="40" cy="360" r="40"/>
		</defs>
		<clipPath id="SVGID_14_">
			<use xlink:href="#SVGID_129_"  style="overflow:visible;"/>
		</clipPath>
		<path style="clip-path:url(#SVGID_14_);fill:none;stroke:#754C29;stroke-width:1.5;stroke-miterlimit:10;" d="M60.898,368.49
			V351.77c0-10.453-2.215-12.539-12.537-12.539l-16.719-0.129c-9.947,0-12.541,2.344-12.541,12.539v16.719
			c0,10.326,2.09,12.539,12.541,12.539h16.719C58.809,380.898,60.898,378.811,60.898,368.49z"/>
	</g>
	<g>
		<defs>
			<circle id="SVGID_131_" cx="40" cy="40" r="40"/>
		</defs>
		<clipPath id="SVGID_16_">
			<use xlink:href="#SVGID_131_"  style="overflow:visible;"/>
		</clipPath>
		
			<line style="clip-path:url(#SVGID_16_);fill:none;stroke:#754C29;stroke-width:5;stroke-linecap:round;stroke-miterlimit:10;" x1="57" y1="23" x2="23" y2="57"/>
		
			<line style="clip-path:url(#SVGID_16_);fill:none;stroke:#754C29;stroke-width:5;stroke-linecap:round;stroke-miterlimit:10;" x1="23" y1="23" x2="57" y2="57"/>
	</g>
	<g>
		<g>
			
				<line style="fill:none;stroke:#754C29;stroke-width:6.5083;stroke-miterlimit:10;" x1="16.318" y1="425.898" x2="63.682" y2="425.898"/>
			<line style="fill:none;stroke:#754C29;stroke-width:6.5083;stroke-miterlimit:10;" x1="16.318" y1="440" x2="63.682" y2="440"/>
			
				<line style="fill:none;stroke:#754C29;stroke-width:6.5083;stroke-miterlimit:10;" x1="16.318" y1="454.102" x2="63.682" y2="454.102"/>
		</g>
		<circle style="fill:none;" cx="40" cy="440" r="40"/>
	</g>
</g>
</svg>
