<?xml version="1.0" encoding="iso-8859-1"?>
<!-- Generator: Adobe Illustrator 16.0.4, SVG Export Plug-In . SVG Version: 6.00 Build 0)  -->
<!DOCTYPE svg PUBLIC "-//W3C//DTD SVG 1.1//EN" "http://www.w3.org/Graphics/SVG/1.1/DTD/svg11.dtd">
<svg version="1.1" id="Layer_1" xmlns="http://www.w3.org/2000/svg" xmlns:xlink="http://www.w3.org/1999/xlink" x="0px" y="0px"
	 width="650px" height="500px" viewBox="0 0 650 500" style="enable-background:new 0 0 650 500;" xml:space="preserve">
<g>
	<path style="fill:#333333;" d="M258.837,266.733c-1.794-1.524-5.337-3.588-8.252-4.888l1.794-2.422
		c2.87,1.121,6.503,3.05,8.296,4.529L258.837,266.733z M262.469,272.967c-2.197,4.709-5.157,10.27-7.624,14.395l-2.826-2.151
		c2.287-3.453,5.516-9.283,7.983-14.351L262.469,272.967z M261.034,254.984c-1.704-1.615-5.202-3.812-8.072-5.157l1.839-2.377
		c2.87,1.211,6.413,3.229,8.207,4.888L261.034,254.984z M288.928,268.707c-1.794,4.978-4.798,8.834-8.565,11.839
		c3.318,2.062,7.175,3.588,11.436,4.484c-0.762,0.673-1.704,2.062-2.153,2.959c-4.529-1.166-8.61-3.004-12.108-5.47
		c-4.171,2.601-8.969,4.349-13.992,5.425c-0.269-0.852-1.031-2.241-1.659-2.959c4.619-0.807,9.104-2.332,13.005-4.574
		c-2.825-2.466-5.157-5.381-6.906-8.745l2.197-0.762h-5.202v-3.005h21.167l0.627-0.135L288.928,268.707z M272.649,254.222
		c-1.48,5.382-3.857,9.597-7.265,12.646c-0.583-0.538-2.018-1.614-2.825-2.107c4.753-3.723,7.085-9.911,8.027-17.715l3.408,0.449
		c-0.179,1.255-0.359,2.466-0.628,3.632h15.472c0,0-0.045,0.942-0.134,1.436c-0.538,7.758-1.121,10.853-2.287,12.108
		c-0.808,0.852-1.66,1.076-2.96,1.166c-1.166,0.089-3.363,0.089-5.65-0.045c-0.09-0.942-0.494-2.242-1.032-3.05
		c2.242,0.18,4.44,0.225,5.292,0.225c0.762,0,1.166-0.045,1.569-0.404c0.763-0.717,1.256-2.959,1.66-8.341H272.649z M271.08,270.904
		c1.57,2.915,3.767,5.516,6.547,7.713c2.825-2.062,5.157-4.663,6.772-7.713H271.08z"/>
	<path style="fill:#333333;" d="M320.319,255.971c-0.852,1.749-1.749,3.543-2.735,5.202h21.705v22.646
		c0,2.019-0.448,3.004-1.884,3.542c-1.479,0.538-3.991,0.583-7.803,0.583c-0.135-0.986-0.628-2.331-1.121-3.272
		c3.004,0.135,5.695,0.09,6.502,0.09c0.763-0.045,1.031-0.27,1.031-0.942v-4.664h-19.238c-0.583,3.274-1.928,6.638-4.574,9.104
		c-0.403-0.718-1.614-2.107-2.332-2.601c3.722-3.588,4.126-8.521,4.126-12.781v-6.547c-2.108,2.556-4.529,4.933-7.265,6.861
		c-0.448-0.718-1.48-1.929-2.107-2.602c5.247-3.542,9.283-8.834,12.063-14.619h-11.167v-3.14h12.602
		c0.762-1.928,1.435-3.856,1.973-5.785l3.318,0.808c-0.493,1.659-1.076,3.363-1.749,4.978h22.872v3.14H320.319z M336.015,276.285
		v-4.663h-18.7v1.345c0,1.076-0.044,2.152-0.134,3.318H336.015z M336.015,264.178h-18.7v4.529h18.7V264.178z"/>
	<path style="fill:#333333;" d="M369.246,263.773c1.614,1.659,5.695,6.323,6.592,7.534l-2.062,2.735
		c-0.808-1.479-2.825-4.26-4.529-6.457v20.358h-3.185v-21.436c-1.748,5.157-4.08,10.136-6.502,13.186
		c-0.358-0.942-1.211-2.243-1.749-3.05c3.095-3.723,6.278-10.674,7.848-16.862h-6.86v-3.139h7.264v-9.598h3.185v9.598h6.367v3.139
		h-6.367V263.773z M397.632,249.692v37.849h-3.273v-2.556h-13.588v2.69h-3.184v-37.983H397.632z M380.771,252.831v7.489h13.588
		v-7.489H380.771z M380.771,271.084h13.588v-7.714h-13.588V271.084z M394.358,281.892v-7.759h-13.588v7.759H394.358z"/>
	<path style="fill:#333333;" d="M429.739,269.828c0.896,1.569,1.973,3.632,2.422,4.888l-1.615,0.628h0.449v3.991
		c0,3.363-0.808,6.413-6.368,8.386c-0.314-0.583-1.076-1.524-1.614-1.973c2.87-0.896,4.305-2.107,4.978-3.453h-5.965v-6.278h2.287
		v4.171h4.216c0.045-0.314,0.045-0.583,0.045-0.897v-3.946h1.704c-0.135-0.358-0.358-0.852-0.538-1.39
		c-7.086,0.672-8.162,0.896-8.835,1.121c-0.045-0.449-0.403-1.615-0.673-2.198c0.673-0.045,1.48-0.538,2.422-1.255
		c0.493-0.359,1.525-1.166,2.691-2.332c-3.005,0.224-3.768,0.358-4.171,0.538c-0.18-0.538-0.448-1.659-0.763-2.287
		c0.493-0.09,0.941-0.314,1.48-0.808c0.448-0.448,2.152-2.242,3.184-4.081h-7.714v25.382h-3.184v-39.06h16.324v13.678h-4.664
		l1.524,0.808c-1.031,1.524-2.287,2.96-3.498,4.081l3.318-0.135c0.718-0.763,1.391-1.524,1.974-2.332l1.973,1.301
		c-2.152,2.287-4.484,4.484-6.771,6.188l4.529-0.358c-0.313-0.628-0.628-1.256-0.941-1.794L429.739,269.828z M417.361,251.396v3.363
		h10.001v-3.363H417.361z M417.361,260.186h10.001v-3.184h-10.001V260.186z M451.22,283.819c0,1.839-0.358,2.869-1.569,3.407
		c-1.166,0.583-3.05,0.673-5.83,0.673c-0.179-0.896-0.583-2.465-1.031-3.317c1.974,0.09,3.856,0.09,4.439,0.045
		c0.583,0,0.763-0.225,0.763-0.808v-21.167h-10.045l1.659,0.853c-1.076,1.524-2.332,2.915-3.498,4.081l3.318-0.18
		c0.718-0.763,1.346-1.524,1.974-2.332l1.928,1.256c-2.107,2.332-4.439,4.529-6.771,6.233l4.484-0.358
		c-0.313-0.628-0.628-1.256-0.941-1.794l1.704-0.583c0.986,1.524,2.062,3.632,2.601,4.843l-1.794,0.808
		c-0.179-0.448-0.403-0.941-0.717-1.524c-7.041,0.717-8.162,0.852-8.745,1.165c-0.09-0.493-0.448-1.614-0.673-2.242
		c0.673-0.089,1.436-0.493,2.377-1.211c0.493-0.358,1.479-1.255,2.735-2.376c-3.094,0.224-3.812,0.358-4.215,0.583
		c-0.135-0.538-0.494-1.659-0.808-2.287c0.538-0.09,0.986-0.314,1.479-0.808s2.153-2.242,3.229-4.126h-2.78v-13.678h16.727V283.819z
		 M440.682,283.686v-1.391h-4.306v5.066h-2.511v-12.018h2.511v4.844h4.306v-4.126h2.377v7.624H440.682z M437.677,251.396v3.363
		h10.314v-3.363H437.677z M447.991,260.186v-3.184h-10.314v3.184H447.991z"/>
	<path style="fill:#333333;" d="M479.114,259.379h-12.826v-2.69h12.826V259.379z M482.656,282.52
		c-3.587,2.152-9.237,4.259-13.678,5.47c-0.583-0.673-1.704-1.928-2.466-2.511c4.574-0.941,9.955-2.556,13.14-4.305L482.656,282.52z
		 M477.993,252.338h-10.719v-2.601h10.719V252.338z M472.163,262.877h29.015v17.982h-29.015V262.877z M475.392,268.169h22.468v-3.05
		h-22.468V268.169z M475.392,273.371h22.468v-3.05h-22.468V273.371z M475.392,278.662h22.468v-3.139h-22.468V278.662z
		 M486.154,252.697c-0.986,1.704-2.152,3.273-3.363,4.484c-0.538-0.493-1.794-1.346-2.511-1.704c2.331-2.108,4.17-5.247,5.157-8.521
		l3.004,0.672c-0.269,0.853-0.628,1.659-0.941,2.467h15.023l0.538-0.135l2.242,0.763c-1.121,2.287-2.557,4.888-3.767,6.458
		l-2.646-0.942c0.673-0.941,1.48-2.242,2.107-3.542h-7.13v0.583c0,0.448-0.045,0.941-0.135,1.479
		c2.377,2.69,7.265,4.439,13.14,4.933c-0.628,0.628-1.479,1.839-1.883,2.646c-5.113-0.718-9.418-2.512-12.198-5.247
		c-1.48,2.197-5.022,4.26-12.916,5.471c-0.358-0.717-1.211-1.928-1.794-2.466c11.615-1.57,12.691-4.619,12.691-6.951v-0.448H486.154
		z M492.882,281.129c4.798,1.479,10.045,3.408,13.185,4.844l-2.915,1.927c-2.87-1.434-7.714-3.362-12.557-4.977L492.882,281.129z"/>
	<path style="fill:#333333;" d="M526.336,268.527c-0.941,4.978-2.825,11.256-5.157,14.485c-0.358-1.121-1.121-2.691-1.749-3.678
		c1.884-2.601,3.723-7.579,4.484-11.57L526.336,268.527z M530.327,265.164v22.87h-3.094v-22.87h-7.176v-3.14h7.176v-14.934h3.094
		v14.934h7.31v3.14H530.327z M522.838,260.455c-0.269-2.646-1.301-6.771-2.467-9.911l2.422-0.583
		c1.301,3.095,2.332,7.131,2.646,9.821L522.838,260.455z M532.391,267.81c0.852,1.301,4.08,7.399,4.753,8.925l-2.377,2.466
		c-0.807-2.421-3.273-8.161-4.215-10.09L532.391,267.81z M537.637,250.499c-1.076,3.364-2.466,7.534-3.677,10.046l-2.197-0.718
		c1.076-2.646,2.332-7.041,3.004-10.045L537.637,250.499z M555.127,275.389v12.601h-3.14v-12.018l-13.901,2.557l-0.538-3.14
		l14.439-2.557v-25.741h3.14v25.158l5.292-0.941l0.493,3.05L555.127,275.389z M546.023,269.11c-1.525-1.614-4.754-3.901-7.399-5.382
		l1.569-2.332c2.646,1.391,5.92,3.453,7.489,5.023L546.023,269.11z M547.951,258.258c-1.435-1.704-4.484-4.126-7.04-5.785
		l1.704-2.242c2.511,1.524,5.605,3.812,7.04,5.471L547.951,258.258z"/>
	<path style="fill:#333333;" d="M578.132,273.774c3.453-1.436,5.427-3.543,5.65-6.593c-0.269,0.045-0.493,0.045-0.762,0.045
		c-1.839,0-3.364-1.076-3.364-3.184c0-2.108,1.57-3.229,3.408-3.229c2.467,0,3.812,2.019,3.812,5.157
		c0,4.844-3.05,8.521-7.759,10.181L578.132,273.774z"/>
	<path style="fill:#333333;" d="M291.708,357.231h-5.426v6.727c0,2.022-0.493,3.008-1.928,3.547
		c-1.48,0.537-3.946,0.582-7.803,0.582c-0.179-0.896-0.718-2.332-1.211-3.188c2.96,0.09,5.83,0.045,6.592,0
		c0.807,0,1.076-0.224,1.076-0.941v-6.727h-23.813v10.901h-3.273v-10.901h-5.292v-3.095h5.292v-16.907h13.364v-4.307h-16.997v-3.139
		h37.76v3.139h-17.445v4.307h13.678v16.907h5.426V357.231z M259.195,340.277v5.427h10.09v-5.427H259.195z M259.195,354.136h10.09
		v-5.516h-10.09V354.136z M272.604,340.277v5.427h10.404v-5.427H272.604z M283.008,354.136v-5.516h-10.404v5.516H283.008z"/>
	<path style="fill:#333333;" d="M304.803,334.671h14.62v2.736h-14.62V334.671z M318.66,365.303h-9.148v2.112h-2.87v-15.074h12.019
		V365.303z M318.57,343.192h-11.884v-2.646h11.884V343.192z M306.686,346.377h11.884v2.646h-11.884V346.377z M312.292,334.178
		c-0.673-1.659-2.108-4.126-3.318-6.01l2.601-1.3c1.256,1.838,2.736,4.17,3.364,5.74L312.292,334.178z M309.512,355.122v7.401h6.233
		v-7.401H309.512z M327.898,359.383c2.018-0.538,4.17-1.121,6.278-1.659l0.314,2.825c-4.933,1.524-10.135,2.96-14.126,4.126
		l-0.942-3.229c1.57-0.358,3.408-0.807,5.426-1.3v-11.84h-4.708v-3.005h12.557v3.005h-4.798V359.383z M336.912,338.978
		c0.628,14.979,2.735,25.833,5.112,25.833c0.673,0,1.076-2.287,1.211-7.311c0.718,0.718,1.749,1.48,2.511,1.794
		c-0.493,6.686-1.39,8.793-4.17,8.793c-5.023,0-7.085-12.83-7.803-29.109h-13.229v-3.141h13.095c-0.09-2.825-0.135-5.695-0.18-8.655
		h3.273c-0.045,3.005,0,5.875,0.09,8.655h8.7v3.141H336.912z M341.801,335.119c-0.718-1.524-2.377-3.991-3.947-5.785l2.332-1.3
		c1.57,1.659,3.274,3.991,4.036,5.516L341.801,335.119z"/>
	<path style="fill:#333333;" d="M358.618,334.671h14.619v2.736h-14.619V334.671z M372.475,365.303h-9.147v2.112h-2.87v-15.074
		h12.018V365.303z M372.385,343.192h-11.883v-2.646h11.883V343.192z M360.502,346.377h11.883v2.646h-11.883V346.377z
		 M366.106,334.178c-0.673-1.659-2.106-4.126-3.317-6.01l2.6-1.3c1.256,1.838,2.735,4.17,3.363,5.74L366.106,334.178z
		 M363.327,355.122v7.401h6.232v-7.401H363.327z M381.713,359.383c2.018-0.538,4.17-1.121,6.277-1.659l0.313,2.825
		c-4.932,1.524-10.134,2.96-14.125,4.126l-0.941-3.229c1.569-0.358,3.408-0.807,5.426-1.3v-11.84h-4.709v-3.005h12.556v3.005h-4.797
		V359.383z M390.726,338.978c0.628,14.979,2.735,25.833,5.112,25.833c0.673,0,1.076-2.287,1.211-7.311
		c0.718,0.718,1.749,1.48,2.512,1.794c-0.493,6.686-1.391,8.793-4.171,8.793c-5.022,0-7.086-12.83-7.803-29.109h-13.229v-3.141
		h13.094c-0.09-2.825-0.135-5.695-0.18-8.655h3.273c-0.045,3.005,0,5.875,0.09,8.655h8.7v3.141H390.726z M395.614,335.119
		c-0.718-1.524-2.377-3.991-3.947-5.785l2.332-1.3c1.57,1.659,3.274,3.991,4.036,5.516L395.614,335.119z"/>
	<path style="fill:#333333;" d="M432.475,348.485c0,0-0.045,1.031-0.045,1.436c-0.538,11.167-0.986,15.248-2.197,16.642
		c-0.763,0.897-1.524,1.167-2.87,1.255c-1.121,0.135-3.318,0.09-5.471,0c-0.09-0.896-0.404-2.156-0.942-2.918
		c2.197,0.225,4.306,0.225,5.112,0.225c0.763,0,1.121-0.09,1.525-0.493c0.807-0.897,1.255-4.306,1.659-13.141h-7.354
		c-0.987,6.503-3.095,12.693-7.804,16.598c-0.448-0.717-1.479-1.794-2.287-2.287c6.099-4.847,7.176-13.996,7.624-22.114h-4.889
		V329.11h17.625v14.575h-9.508c-0.09,1.57-0.224,3.185-0.403,4.8H432.475z M417.631,340.727h11.391v-8.611h-11.391V340.727z
		 M439.964,357.096h-3.229v-24.667h3.229V357.096z M450.951,327.944v35.655c0,2.246-0.628,3.277-2.019,3.861
		c-1.479,0.537-3.991,0.582-8.072,0.582c-0.179-0.896-0.672-2.425-1.21-3.367c3.139,0.135,5.964,0.09,6.816,0.045
		c0.807,0,1.166-0.27,1.166-1.121v-35.655H450.951z"/>
	<path style="fill:#333333;" d="M478.396,327.63c-0.763,2.198-1.569,4.664-2.332,6.593h7.444v29.107h-12.467v3.546h-3.05v-32.653
		h5.022c0.673-2.152,1.48-5.157,1.794-7.265L478.396,327.63z M480.459,337.229h-9.417v9.372h9.417V337.229z M480.459,360.325
		v-10.763h-9.417v10.763H480.459z M505.438,335.792c-0.718,20.452-1.301,27.358-3.095,29.556c-0.986,1.258-2.018,1.663-3.543,1.797
		c-1.569,0.18-4.126,0.09-6.637-0.045c-0.09-0.987-0.493-2.335-1.121-3.278c2.915,0.27,5.605,0.27,6.637,0.27
		c0.897,0,1.391-0.09,1.839-0.673c1.479-1.569,2.152-8.387,2.735-26.236h-11.391c-1.256,3.004-2.646,5.74-4.216,7.848
		c-0.583-0.538-2.018-1.435-2.735-1.884c3.005-3.946,5.427-10.136,6.861-16.279l3.185,0.762c-0.538,2.198-1.166,4.351-1.929,6.458
		h13.409V335.792z M495.527,356.019c-1.346-2.69-4.35-7.131-6.816-10.36l2.601-1.524c2.512,3.185,5.606,7.489,7.041,10.136
		L495.527,356.019z"/>
</g>
<g style="opacity:0.3;">
	<g>
		<path style="fill:#4F412F;" d="M134.006,269.622H69.491v-22.665h156.058v22.665h-64.515v190.356h-27.025V269.622H134.006z"/>
	</g>
	<g>
		<path style="fill:#4F412F;" d="M187.236,392.648h-79.337l-21.795,67.129h-24.12l72.652-212.733h26.449l72.94,212.733h-25.572
			L187.236,392.648z M181.136,373.752l-11.042-34.585c-8.142-24.122-14.824-47.079-22.089-72.067h-1.162
			c-6.975,25.279-13.95,47.947-21.796,72.067l-11.042,34.585H181.136z"/>
	</g>
</g>
<path style="fill:#333333;" d="M151.352,69.897c0,1.848-1.5,3.348-3.346,3.348c-1.85,0-3.349-1.5-3.349-3.348
	c0-1.851,1.499-3.347,3.349-3.347C149.852,66.551,151.352,68.047,151.352,69.897z M98.467,101.312L82.4,85.248v102.94l16.066-16.065
	V101.312z M84.483,83.163h42.876l13.68-19.254c1.818-2.558,4.292-3.966,6.967-3.966l0,0c2.675,0,5.147,1.408,6.965,3.966
	l13.676,19.254h42.878l-16.069,16.064H100.55L84.483,83.163z M130.975,83.163h34.063L152.57,65.616
	c-1.248-1.757-2.869-2.728-4.564-2.728c-1.694,0-3.314,0.971-4.564,2.728L130.975,83.163z M197.543,101.312v70.811l16.065,16.066
	V85.248L197.543,101.312z M100.55,174.205l-16.066,16.068h127.041l-16.064-16.068H100.55z M158.582,123.041l-18.777,26.545
	l-10.577-14.949l-19.649,27.776h21.155h18.145h37.553L158.582,123.041z M118.766,111.847c-3.698,0-6.694,2.995-6.694,6.695
	c0,3.698,2.996,6.692,6.694,6.692c3.696,0,6.693-2.994,6.693-6.692C125.459,114.842,122.462,111.847,118.766,111.847z"/>
</svg>
