<?xml version="1.0" encoding="iso-8859-1"?>
<!-- Generator: Adobe Illustrator 16.0.4, SVG Export Plug-In . SVG Version: 6.00 Build 0)  -->
<!DOCTYPE svg PUBLIC "-//W3C//DTD SVG 1.1//EN" "http://www.w3.org/Graphics/SVG/1.1/DTD/svg11.dtd">
<svg version="1.1" id="Layer_1" xmlns="http://www.w3.org/2000/svg" xmlns:xlink="http://www.w3.org/1999/xlink" x="0px" y="0px"
	 width="650px" height="500px" viewBox="0 0 650 500" style="enable-background:new 0 0 650 500;" xml:space="preserve">
<g>
	<path style="fill:#333333;" d="M179.703,169.011c0,0-11.095-7.201-21.922,4.741c-6.438,7.105-8.087,5.496-9.384,3.733
		c5.164-8.026,8.709-16.687,8.554-22.498c-0.176-6.441-6.567-14.506-14.81-21.243c2.242,0.13,4.51-0.809,5.971-2.735
		c2.344-3.058,1.757-7.434-1.302-9.773c-3.061-2.345-7.446-1.755-9.782,1.308c-1.516,1.983-1.785,4.509-0.966,6.685
		c-8.69-5.808-18.175-9.696-24.419-8.861c-1.133,0.154-2.328,0.504-3.558,1.006c-0.15,0.07-0.369,0.224-0.561,0.34
		c-0.667-3.639-2.427-9.657-6.903-12.238c-2.013-1.156-5.39-2.056-10.086,0.207c-12.903,6.233-10.773,26.972-9.502,39.361
		l0.241,2.408c-0.779,1.445-1.317,2.731-1.549,3.786c-0.938,3.041-1.343,5.859-1.003,8.226c0.031,0.197,0.076,0.391,0.119,0.594
		l44.523,34.014c0.219,0,0.451,0.017,0.667,0.004c3.738-0.137,7.953-2.452,12.085-6.022l-0.004,0.009c0,0,11.668,7.033,18.513-2.202
		c6.85-9.241,16.7-18.516,22.551-15.323l-2.194-3.803L179.703,169.011z M86.194,144.057c-0.982-10.875-1.394-25.359,6.791-29.309
		c2.986-1.454,4.367-0.663,4.824-0.4c3.13,1.794,4.327,8.453,4.504,10.644c0.026,0.305,0.133,0.58,0.245,0.842
		C97.725,130.39,91.094,137.577,86.194,144.057z"/>
	<g>
		<path style="fill:#333333;" d="M197.997,201.812c-0.065,0-0.134-0.008-0.207-0.008c-1.768-0.107-3.532-1.553-3.419-3.325
			c0.929-14.948-8.718-20.834-11.376-22.885c-2.659-2.051-3.292-4.459-3.292-4.459s1.594,0.23,4.481,1.142
			c2.886,0.912,19.281,7.117,18.077,26.354C202.157,200.33,199.682,201.812,197.997,201.812z"/>
	</g>
	<path style="fill:#333333;" d="M216.136,204.787h-36.915c-0.516,2.994-0.792,6.156-0.792,9.434c0,11.18,3.201,21.062,8.113,27.093
		h22.272c4.913-6.031,8.113-15.913,8.113-27.093C216.927,210.943,216.652,207.781,216.136,204.787z"/>
</g>
<g>
	<g>
		<path style="fill:#333333;" d="M258.599,266.74c-1.794-1.524-5.337-3.588-8.252-4.888l1.794-2.422
			c2.87,1.121,6.503,3.05,8.296,4.529L258.599,266.74z M262.23,272.974c-2.197,4.709-5.157,10.27-7.623,14.396l-2.826-2.152
			c2.287-3.453,5.517-9.283,7.983-14.351L262.23,272.974z M260.796,254.991c-1.704-1.615-5.202-3.812-8.072-5.157l1.839-2.377
			c2.87,1.211,6.412,3.229,8.206,4.888L260.796,254.991z M288.689,268.714c-1.794,4.978-4.798,8.834-8.565,11.839
			c3.318,2.062,7.176,3.588,11.436,4.484c-0.762,0.673-1.704,2.063-2.152,2.96c-4.529-1.166-8.61-3.005-12.108-5.471
			c-4.171,2.601-8.969,4.35-13.992,5.426c-0.269-0.852-1.031-2.242-1.659-2.96c4.619-0.807,9.104-2.332,13.006-4.574
			c-2.825-2.466-5.157-5.381-6.906-8.745l2.197-0.762h-5.202v-3.005h21.167l0.628-0.135L288.689,268.714z M272.411,254.229
			c-1.48,5.382-3.857,9.597-7.266,12.646c-0.583-0.538-2.018-1.614-2.825-2.107c4.754-3.723,7.086-9.911,8.027-17.715l3.408,0.449
			c-0.179,1.255-0.358,2.466-0.628,3.632H288.6c0,0-0.045,0.942-0.134,1.436c-0.538,7.758-1.121,10.853-2.287,12.108
			c-0.808,0.852-1.66,1.076-2.96,1.166c-1.166,0.089-3.363,0.089-5.65-0.045c-0.09-0.942-0.494-2.242-1.032-3.05
			c2.242,0.18,4.44,0.225,5.292,0.225c0.763,0,1.166-0.045,1.569-0.404c0.763-0.717,1.256-2.959,1.66-8.341H272.411z
			 M270.841,270.911c1.57,2.915,3.768,5.516,6.548,7.713c2.825-2.062,5.157-4.663,6.771-7.713H270.841z"/>
		<path style="fill:#333333;" d="M320.081,255.978c-0.853,1.749-1.749,3.543-2.735,5.202h21.705v22.646
			c0,2.019-0.448,3.005-1.884,3.543c-1.479,0.538-3.991,0.583-7.803,0.583c-0.135-0.986-0.628-2.332-1.121-3.273
			c3.004,0.135,5.695,0.09,6.502,0.09c0.763-0.045,1.031-0.27,1.031-0.942v-4.664h-19.238c-0.583,3.274-1.929,6.638-4.574,9.104
			c-0.403-0.718-1.614-2.108-2.332-2.602c3.722-3.588,4.126-8.521,4.126-12.781v-6.547c-2.108,2.556-4.529,4.933-7.266,6.861
			c-0.448-0.718-1.479-1.929-2.107-2.602c5.247-3.542,9.283-8.834,12.063-14.619h-11.166v-3.14h12.602
			c0.762-1.928,1.435-3.856,1.973-5.785l3.318,0.808c-0.493,1.659-1.076,3.363-1.749,4.978h22.871v3.14H320.081z M335.776,276.292
			v-4.663h-18.7v1.345c0,1.076-0.045,2.152-0.135,3.318H335.776z M335.776,264.185h-18.7v4.529h18.7V264.185z"/>
		<path style="fill:#333333;" d="M369.01,263.78c1.614,1.659,5.695,6.323,6.592,7.534l-2.062,2.735
			c-0.808-1.479-2.825-4.26-4.529-6.457v20.359h-3.185v-21.437c-1.749,5.157-4.081,10.136-6.503,13.186
			c-0.358-0.942-1.211-2.243-1.749-3.05c3.095-3.723,6.278-10.674,7.849-16.862h-6.861v-3.139h7.265v-9.598h3.185v9.598h6.367v3.139
			h-6.367V263.78z M397.396,249.699v37.85h-3.273v-2.557h-13.589v2.691h-3.184v-37.984H397.396z M380.534,252.838v7.489h13.589
			v-7.489H380.534z M380.534,271.091h13.589v-7.714h-13.589V271.091z M394.123,281.898v-7.759h-13.589v7.759H394.123z"/>
		<path style="fill:#333333;" d="M429.505,269.835c0.896,1.569,1.973,3.632,2.422,4.888l-1.615,0.628h0.449v3.991
			c0,3.363-0.808,6.413-6.368,8.387c-0.314-0.583-1.076-1.525-1.614-1.974c2.87-0.896,4.305-2.107,4.978-3.453h-5.965v-6.278h2.287
			v4.171h4.216c0.045-0.314,0.045-0.583,0.045-0.897v-3.946h1.704c-0.135-0.358-0.358-0.852-0.538-1.39
			c-7.086,0.672-8.162,0.896-8.835,1.121c-0.045-0.449-0.403-1.615-0.673-2.198c0.673-0.045,1.48-0.538,2.422-1.255
			c0.493-0.359,1.525-1.166,2.691-2.332c-3.005,0.224-3.768,0.358-4.171,0.538c-0.18-0.538-0.448-1.659-0.763-2.287
			c0.493-0.09,0.941-0.314,1.48-0.808c0.448-0.448,2.152-2.242,3.184-4.081h-7.714v25.383h-3.184v-39.061h16.324v13.678h-4.664
			l1.524,0.808c-1.031,1.524-2.287,2.96-3.498,4.081l3.318-0.135c0.718-0.763,1.391-1.524,1.974-2.332l1.973,1.301
			c-2.152,2.287-4.484,4.484-6.771,6.188l4.529-0.358c-0.313-0.628-0.628-1.256-0.941-1.794L429.505,269.835z M417.127,251.403
			v3.363h10.001v-3.363H417.127z M417.127,260.192h10.001v-3.184h-10.001V260.192z M450.985,283.826c0,1.839-0.358,2.87-1.569,3.408
			c-1.166,0.583-3.05,0.673-5.83,0.673c-0.179-0.896-0.583-2.466-1.031-3.318c1.974,0.09,3.856,0.09,4.439,0.045
			c0.583,0,0.763-0.225,0.763-0.808v-21.167h-10.045l1.659,0.853c-1.076,1.524-2.332,2.915-3.498,4.081l3.318-0.18
			c0.718-0.763,1.346-1.524,1.974-2.332l1.928,1.256c-2.107,2.332-4.439,4.529-6.771,6.233l4.484-0.358
			c-0.313-0.628-0.628-1.256-0.941-1.794l1.704-0.583c0.986,1.524,2.062,3.632,2.601,4.843l-1.794,0.808
			c-0.179-0.448-0.403-0.941-0.717-1.524c-7.041,0.717-8.162,0.852-8.745,1.165c-0.09-0.493-0.448-1.614-0.673-2.242
			c0.673-0.089,1.436-0.493,2.377-1.211c0.493-0.358,1.479-1.255,2.735-2.376c-3.094,0.224-3.812,0.358-4.215,0.583
			c-0.135-0.538-0.494-1.659-0.808-2.287c0.538-0.09,0.986-0.314,1.479-0.808s2.153-2.242,3.229-4.126h-2.78v-13.678h16.727V283.826
			z M440.447,283.692v-1.391h-4.306v5.067h-2.511v-12.019h2.511v4.844h4.306v-4.126h2.377v7.624H440.447z M437.442,251.403v3.363
			h10.314v-3.363H437.442z M447.757,260.192v-3.184h-10.314v3.184H447.757z"/>
		<path style="fill:#333333;" d="M478.88,259.386h-12.826v-2.69h12.826V259.386z M482.422,282.526
			c-3.587,2.152-9.237,4.26-13.678,5.471c-0.583-0.673-1.704-1.929-2.466-2.512c4.574-0.941,9.955-2.556,13.14-4.305
			L482.422,282.526z M477.759,252.345H467.04v-2.601h10.719V252.345z M471.929,262.884h29.015v17.982h-29.015V262.884z
			 M475.157,268.176h22.468v-3.05h-22.468V268.176z M475.157,273.378h22.468v-3.05h-22.468V273.378z M475.157,278.669h22.468v-3.139
			h-22.468V278.669z M485.92,252.704c-0.986,1.704-2.152,3.273-3.363,4.484c-0.538-0.493-1.794-1.346-2.511-1.704
			c2.331-2.108,4.17-5.247,5.157-8.521l3.004,0.672c-0.269,0.853-0.628,1.659-0.941,2.467h15.023l0.538-0.135l2.242,0.763
			c-1.121,2.287-2.557,4.888-3.767,6.458l-2.646-0.942c0.673-0.941,1.48-2.242,2.107-3.542h-7.13v0.583
			c0,0.448-0.045,0.941-0.135,1.479c2.377,2.69,7.265,4.439,13.14,4.933c-0.628,0.628-1.479,1.839-1.883,2.646
			c-5.113-0.718-9.418-2.512-12.198-5.247c-1.48,2.197-5.022,4.26-12.916,5.471c-0.358-0.717-1.211-1.928-1.794-2.466
			c11.615-1.57,12.691-4.619,12.691-6.951v-0.448H485.92z M492.647,281.136c4.798,1.479,10.045,3.408,13.185,4.844l-2.915,1.928
			c-2.87-1.435-7.714-3.363-12.557-4.978L492.647,281.136z"/>
		<path style="fill:#333333;" d="M526.102,268.534c-0.941,4.978-2.825,11.256-5.157,14.485c-0.358-1.121-1.121-2.691-1.749-3.678
			c1.884-2.601,3.723-7.579,4.484-11.57L526.102,268.534z M530.093,265.171v22.871h-3.094v-22.871h-7.176v-3.14h7.176v-14.934h3.094
			v14.934h7.31v3.14H530.093z M522.604,260.462c-0.269-2.646-1.301-6.771-2.467-9.911l2.422-0.583
			c1.301,3.095,2.332,7.131,2.646,9.821L522.604,260.462z M532.156,267.816c0.852,1.301,4.08,7.399,4.753,8.925l-2.377,2.466
			c-0.807-2.421-3.273-8.161-4.215-10.09L532.156,267.816z M537.402,250.506c-1.076,3.364-2.466,7.534-3.677,10.046l-2.197-0.718
			c1.076-2.646,2.332-7.041,3.004-10.045L537.402,250.506z M554.893,275.396v12.602h-3.14v-12.019l-13.901,2.557l-0.538-3.14
			l14.439-2.557v-25.741h3.14v25.158l5.292-0.941l0.493,3.05L554.893,275.396z M545.789,269.117
			c-1.525-1.614-4.754-3.901-7.399-5.382l1.569-2.332c2.646,1.391,5.92,3.453,7.489,5.023L545.789,269.117z M547.717,258.265
			c-1.435-1.704-4.484-4.126-7.04-5.785l1.704-2.242c2.511,1.524,5.605,3.812,7.04,5.471L547.717,258.265z"/>
		<path style="fill:#333333;" d="M577.897,273.781c3.453-1.436,5.427-3.543,5.65-6.593c-0.269,0.045-0.493,0.045-0.762,0.045
			c-1.839,0-3.364-1.076-3.364-3.184c0-2.108,1.57-3.229,3.408-3.229c2.467,0,3.812,2.019,3.812,5.157
			c0,4.844-3.05,8.521-7.759,10.181L577.897,273.781z"/>
		<path style="fill:#333333;" d="M291.47,357.234h-5.426v6.727c0,2.019-0.493,3.005-1.929,3.543
			c-1.479,0.538-3.946,0.583-7.803,0.583c-0.18-0.897-0.718-2.332-1.211-3.185c2.96,0.09,5.83,0.045,6.592,0
			c0.808,0,1.076-0.224,1.076-0.941v-6.727h-23.812v10.897h-3.273v-10.897h-5.292v-3.095h5.292v-16.906h13.363v-4.306h-16.996
			v-3.139h37.76v3.139h-17.444v4.306h13.678v16.906h5.426V357.234z M258.957,340.282v5.427h10.09v-5.427H258.957z M258.957,354.14
			h10.09v-5.516h-10.09V354.14z M272.366,340.282v5.427h10.403v-5.427H272.366z M282.77,354.14v-5.516h-10.403v5.516H282.77z"/>
		<path style="fill:#333333;" d="M304.564,334.677h14.619v2.735h-14.619V334.677z M318.422,365.307h-9.148v2.107h-2.87v-15.068
			h12.019V365.307z M318.332,343.197h-11.885v-2.646h11.885V343.197z M306.447,346.382h11.885v2.646h-11.885V346.382z
			 M312.054,334.184c-0.673-1.659-2.108-4.126-3.318-6.01l2.601-1.3c1.256,1.838,2.735,4.17,3.363,5.74L312.054,334.184z
			 M309.273,355.126v7.4h6.233v-7.4H309.273z M327.66,359.387c2.018-0.538,4.17-1.121,6.278-1.659l0.313,2.825
			c-4.933,1.524-10.135,2.96-14.126,4.126l-0.942-3.229c1.57-0.358,3.408-0.807,5.427-1.3v-11.84h-4.709v-3.004h12.557v3.004h-4.798
			V359.387z M336.674,338.982c0.628,14.979,2.735,25.831,5.112,25.831c0.672,0,1.076-2.287,1.21-7.311
			c0.718,0.718,1.749,1.48,2.511,1.794c-0.493,6.683-1.391,8.79-4.169,8.79c-5.023,0-7.086-12.826-7.804-29.104h-13.229v-3.14H333.4
			c-0.09-2.825-0.135-5.695-0.18-8.655h3.273c-0.045,3.005,0,5.875,0.09,8.655h8.699v3.14H336.674z M341.562,335.125
			c-0.717-1.524-2.377-3.991-3.947-5.785l2.333-1.3c1.57,1.659,3.273,3.991,4.034,5.516L341.562,335.125z"/>
		<path style="fill:#333333;" d="M358.381,334.677h14.62v2.735h-14.62V334.677z M372.238,365.307h-9.148v2.107h-2.87v-15.068h12.019
			V365.307z M372.148,343.197h-11.884v-2.646h11.884V343.197z M360.265,346.382h11.884v2.646h-11.884V346.382z M365.87,334.184
			c-0.673-1.659-2.107-4.126-3.318-6.01l2.601-1.3c1.256,1.838,2.735,4.17,3.363,5.74L365.87,334.184z M363.09,355.126v7.4h6.233
			v-7.4H363.09z M381.477,359.387c2.018-0.538,4.171-1.121,6.278-1.659l0.313,2.825c-4.933,1.524-10.135,2.96-14.126,4.126
			l-0.941-3.229c1.569-0.358,3.408-0.807,5.426-1.3v-11.84h-4.709v-3.004h12.557v3.004h-4.798V359.387z M390.49,338.982
			c0.628,14.979,2.735,25.831,5.112,25.831c0.673,0,1.076-2.287,1.211-7.311c0.718,0.718,1.749,1.48,2.512,1.794
			c-0.493,6.683-1.391,8.79-4.171,8.79c-5.022,0-7.086-12.826-7.803-29.104h-13.229v-3.14h13.095
			c-0.09-2.825-0.135-5.695-0.18-8.655h3.273c-0.045,3.005,0,5.875,0.09,8.655h8.7v3.14H390.49z M395.379,335.125
			c-0.718-1.524-2.377-3.991-3.947-5.785l2.332-1.3c1.57,1.659,3.274,3.991,4.036,5.516L395.379,335.125z"/>
		<path style="fill:#333333;" d="M432.24,348.489c0,0-0.045,1.031-0.045,1.436c-0.538,11.166-0.986,15.247-2.197,16.638
			c-0.763,0.896-1.524,1.166-2.87,1.255c-1.121,0.135-3.318,0.09-5.471,0c-0.09-0.896-0.404-2.152-0.942-2.915
			c2.197,0.225,4.306,0.225,5.112,0.225c0.763,0,1.121-0.09,1.525-0.493c0.807-0.897,1.255-4.306,1.659-13.14h-7.354
			c-0.987,6.502-3.095,12.691-7.804,16.593c-0.448-0.718-1.479-1.794-2.287-2.287c6.099-4.844,7.176-13.992,7.624-22.109h-4.889
			v-14.574h17.625v14.574h-9.508c-0.09,1.57-0.224,3.185-0.403,4.799H432.24z M417.396,340.731h11.391v-8.61h-11.391V340.731z
			 M439.729,357.1h-3.229v-24.665h3.229V357.1z M450.717,327.95v35.652c0,2.242-0.628,3.273-2.019,3.856
			c-1.479,0.538-3.991,0.583-8.072,0.583c-0.179-0.896-0.672-2.422-1.21-3.363c3.139,0.135,5.964,0.09,6.816,0.045
			c0.807,0,1.166-0.27,1.166-1.121V327.95H450.717z"/>
		<path style="fill:#333333;" d="M478.162,327.636c-0.763,2.198-1.569,4.664-2.332,6.593h7.444v29.104h-12.467v3.543h-3.05v-32.647
			h5.022c0.673-2.152,1.48-5.157,1.794-7.265L478.162,327.636z M480.225,337.233h-9.417v9.372h9.417V337.233z M480.225,360.328
			v-10.763h-9.417v10.763H480.225z M505.204,335.798c-0.718,20.45-1.301,27.355-3.095,29.554c-0.986,1.255-2.018,1.659-3.543,1.794
			c-1.569,0.179-4.126,0.089-6.637-0.045c-0.09-0.987-0.493-2.332-1.121-3.274c2.915,0.27,5.605,0.27,6.637,0.27
			c0.897,0,1.391-0.09,1.839-0.673c1.479-1.569,2.152-8.386,2.735-26.234h-11.391c-1.256,3.004-2.646,5.74-4.216,7.848
			c-0.583-0.538-2.018-1.435-2.735-1.884c3.005-3.946,5.427-10.135,6.861-16.278l3.185,0.762c-0.538,2.198-1.166,4.351-1.929,6.458
			h13.409V335.798z M495.293,356.023c-1.346-2.69-4.35-7.131-6.816-10.359l2.601-1.524c2.512,3.184,5.606,7.489,7.041,10.135
			L495.293,356.023z"/>
	</g>
</g>
<g style="opacity:0.3;">
	<g>
		<path style="fill:#4F412F;" d="M133.768,269.629H69.253v-22.665h156.058v22.665h-64.515v190.348h-27.025V269.629H133.768z"/>
	</g>
	<g>
		<path style="fill:#4F412F;" d="M186.998,392.647h-79.337l-21.795,67.129h-24.12l72.652-212.726h26.449l72.94,212.726h-25.572
			L186.998,392.647z M180.897,373.755l-11.042-34.581c-8.142-24.122-14.824-47.079-22.089-72.067h-1.162
			c-6.975,25.279-13.95,47.947-21.796,72.067l-11.042,34.581H180.897z"/>
	</g>
</g>
</svg>
