<?xml version="1.0" encoding="iso-8859-1"?>
<!-- Generator: Adobe Illustrator 16.0.4, SVG Export Plug-In . SVG Version: 6.00 Build 0)  -->
<!DOCTYPE svg PUBLIC "-//W3C//DTD SVG 1.1//EN" "http://www.w3.org/Graphics/SVG/1.1/DTD/svg11.dtd">
<svg version="1.1" id="Layer_1" xmlns="http://www.w3.org/2000/svg" xmlns:xlink="http://www.w3.org/1999/xlink" x="0px" y="0px"
	 width="650px" height="500px" viewBox="0 0 650 500" style="enable-background:new 0 0 650 500;" xml:space="preserve">
<g>
	<path style="fill:#333333;" d="M258.837,266.742c-1.794-1.524-5.337-3.588-8.252-4.888l1.794-2.422
		c2.87,1.121,6.503,3.05,8.296,4.529L258.837,266.742z M262.469,272.976c-2.197,4.709-5.157,10.27-7.624,14.396l-2.826-2.152
		c2.287-3.453,5.516-9.283,7.983-14.351L262.469,272.976z M261.034,254.993c-1.704-1.615-5.202-3.812-8.072-5.157l1.839-2.377
		c2.87,1.211,6.413,3.229,8.207,4.888L261.034,254.993z M288.928,268.716c-1.794,4.978-4.798,8.834-8.565,11.839
		c3.318,2.062,7.175,3.588,11.436,4.484c-0.762,0.673-1.704,2.063-2.153,2.96c-4.529-1.166-8.61-3.005-12.108-5.471
		c-4.171,2.601-8.969,4.35-13.992,5.426c-0.269-0.852-1.031-2.242-1.659-2.96c4.619-0.807,9.104-2.332,13.005-4.574
		c-2.825-2.466-5.157-5.381-6.906-8.745l2.197-0.762h-5.202v-3.005h21.167l0.627-0.135L288.928,268.716z M272.649,254.23
		c-1.48,5.382-3.857,9.597-7.265,12.646c-0.583-0.538-2.018-1.614-2.825-2.107c4.753-3.723,7.085-9.911,8.027-17.715l3.408,0.449
		c-0.179,1.255-0.359,2.466-0.628,3.632h15.472c0,0-0.045,0.942-0.134,1.436c-0.538,7.758-1.121,10.853-2.287,12.108
		c-0.808,0.852-1.66,1.076-2.96,1.166c-1.166,0.089-3.363,0.089-5.65-0.045c-0.09-0.942-0.494-2.242-1.032-3.05
		c2.242,0.18,4.44,0.225,5.292,0.225c0.762,0,1.166-0.045,1.569-0.404c0.763-0.717,1.256-2.959,1.66-8.341H272.649z M271.08,270.913
		c1.57,2.915,3.767,5.516,6.547,7.713c2.825-2.062,5.157-4.663,6.772-7.713H271.08z"/>
	<path style="fill:#333333;" d="M320.319,255.979c-0.852,1.749-1.749,3.543-2.735,5.202h21.705v22.646
		c0,2.019-0.448,3.005-1.884,3.543c-1.479,0.538-3.991,0.583-7.803,0.583c-0.135-0.986-0.628-2.332-1.121-3.273
		c3.005,0.135,5.695,0.09,6.503,0.09c0.762-0.045,1.031-0.27,1.031-0.942v-4.664h-19.239c-0.583,3.274-1.928,6.638-4.574,9.104
		c-0.403-0.718-1.614-2.108-2.332-2.602c3.722-3.588,4.126-8.521,4.126-12.781v-6.547c-2.108,2.556-4.529,4.933-7.265,6.861
		c-0.448-0.718-1.48-1.929-2.107-2.602c5.247-3.542,9.283-8.834,12.063-14.619h-11.167v-3.14h12.601
		c0.763-1.928,1.436-3.856,1.974-5.785l3.318,0.808c-0.493,1.659-1.076,3.363-1.749,4.978h22.871v3.14H320.319z M336.015,276.294
		v-4.663h-18.701v1.345c0,1.076-0.044,2.152-0.134,3.318H336.015z M336.015,264.187h-18.701v4.529h18.701V264.187z"/>
	<path style="fill:#333333;" d="M369.247,263.782c1.613,1.659,5.695,6.323,6.592,7.534l-2.062,2.735
		c-0.809-1.479-2.826-4.26-4.529-6.457v20.359h-3.186v-21.437c-1.748,5.157-4.08,10.136-6.502,13.186
		c-0.359-0.942-1.211-2.243-1.75-3.05c3.096-3.723,6.279-10.674,7.85-16.862h-6.861v-3.139h7.264v-9.598h3.186v9.598h6.367v3.139
		h-6.367V263.782z M397.634,249.701v37.85h-3.273v-2.557h-13.59v2.691h-3.184v-37.984H397.634z M380.771,252.84v7.489h13.59v-7.489
		H380.771z M380.771,271.093h13.59v-7.714h-13.59V271.093z M394.36,281.9v-7.759h-13.59v7.759H394.36z"/>
	<path style="fill:#333333;" d="M429.741,269.837c0.896,1.569,1.973,3.632,2.422,4.888l-1.615,0.628h0.449v3.991
		c0,3.363-0.807,6.413-6.367,8.387c-0.314-0.583-1.076-1.525-1.615-1.974c2.871-0.896,4.305-2.107,4.979-3.453h-5.965v-6.278h2.287
		v4.171h4.215c0.045-0.314,0.045-0.583,0.045-0.897v-3.946h1.705c-0.135-0.358-0.359-0.852-0.539-1.39
		c-7.086,0.672-8.162,0.896-8.834,1.121c-0.045-0.449-0.404-1.615-0.674-2.198c0.674-0.045,1.48-0.538,2.422-1.255
		c0.494-0.359,1.525-1.166,2.691-2.332c-3.004,0.224-3.768,0.358-4.17,0.538c-0.18-0.538-0.449-1.659-0.764-2.287
		c0.494-0.09,0.941-0.314,1.48-0.808c0.449-0.448,2.152-2.242,3.184-4.081h-7.713v25.383h-3.184v-39.061h16.324v13.678h-4.664
		l1.523,0.808c-1.031,1.524-2.287,2.96-3.498,4.081l3.318-0.135c0.719-0.763,1.391-1.524,1.975-2.332l1.973,1.301
		c-2.152,2.287-4.484,4.484-6.771,6.188l4.529-0.358c-0.314-0.628-0.629-1.256-0.941-1.794L429.741,269.837z M417.364,251.405v3.363
		h10v-3.363H417.364z M417.364,260.194h10v-3.184h-10V260.194z M451.222,283.828c0,1.839-0.357,2.87-1.568,3.408
		c-1.166,0.583-3.051,0.673-5.83,0.673c-0.18-0.896-0.584-2.466-1.031-3.318c1.973,0.09,3.855,0.09,4.439,0.045
		c0.582,0,0.762-0.225,0.762-0.808v-21.167h-10.045l1.66,0.853c-1.076,1.524-2.332,2.915-3.498,4.081l3.318-0.18
		c0.717-0.763,1.346-1.524,1.973-2.332l1.928,1.256c-2.107,2.332-4.439,4.529-6.771,6.233l4.484-0.358
		c-0.312-0.628-0.627-1.256-0.941-1.794l1.705-0.583c0.986,1.524,2.062,3.632,2.6,4.843l-1.793,0.808
		c-0.18-0.448-0.404-0.941-0.717-1.524c-7.041,0.717-8.162,0.852-8.746,1.165c-0.09-0.493-0.447-1.614-0.672-2.242
		c0.672-0.089,1.436-0.493,2.377-1.211c0.492-0.358,1.479-1.255,2.734-2.376c-3.094,0.224-3.811,0.358-4.215,0.583
		c-0.135-0.538-0.494-1.659-0.807-2.287c0.537-0.09,0.986-0.314,1.479-0.808c0.494-0.493,2.154-2.242,3.23-4.126h-2.781v-13.678
		h16.727V283.828z M440.685,283.694v-1.391h-4.307v5.067h-2.51v-12.019h2.51v4.844h4.307v-4.126h2.377v7.624H440.685z
		 M437.679,251.405v3.363h10.314v-3.363H437.679z M447.993,260.194v-3.184h-10.314v3.184H447.993z"/>
	<path style="fill:#333333;" d="M479.116,259.388H466.29v-2.69h12.826V259.388z M482.659,282.528
		c-3.588,2.152-9.238,4.26-13.678,5.471c-0.584-0.673-1.705-1.929-2.467-2.512c4.574-0.941,9.955-2.556,13.141-4.305
		L482.659,282.528z M477.995,252.347h-10.719v-2.601h10.719V252.347z M472.165,262.886h29.016v17.982h-29.016V262.886z
		 M475.394,268.178h22.469v-3.05h-22.469V268.178z M475.394,273.38h22.469v-3.05h-22.469V273.38z M475.394,278.671h22.469v-3.139
		h-22.469V278.671z M486.157,252.706c-0.986,1.704-2.152,3.273-3.363,4.484c-0.539-0.493-1.795-1.346-2.512-1.704
		c2.332-2.108,4.17-5.247,5.158-8.521l3.004,0.672c-0.27,0.853-0.629,1.659-0.941,2.467h15.023l0.537-0.135l2.242,0.763
		c-1.121,2.287-2.557,4.888-3.766,6.458l-2.646-0.942c0.672-0.941,1.48-2.242,2.107-3.542h-7.131v0.583
		c0,0.448-0.045,0.941-0.135,1.479c2.377,2.69,7.266,4.439,13.141,4.933c-0.629,0.628-1.48,1.839-1.883,2.646
		c-5.113-0.718-9.418-2.512-12.199-5.247c-1.48,2.197-5.021,4.26-12.916,5.471c-0.357-0.717-1.211-1.928-1.793-2.466
		c11.615-1.57,12.691-4.619,12.691-6.951v-0.448H486.157z M492.884,281.138c4.799,1.479,10.045,3.408,13.186,4.844l-2.916,1.928
		c-2.869-1.435-7.713-3.363-12.557-4.978L492.884,281.138z"/>
	<path style="fill:#333333;" d="M526.339,268.536c-0.941,4.978-2.826,11.256-5.158,14.485c-0.357-1.121-1.121-2.691-1.748-3.678
		c1.883-2.601,3.723-7.579,4.484-11.57L526.339,268.536z M530.329,265.173v22.871h-3.094v-22.871h-7.176v-3.14h7.176V247.1h3.094
		v14.934h7.311v3.14H530.329z M522.841,260.464c-0.27-2.646-1.301-6.771-2.467-9.911l2.422-0.583
		c1.301,3.095,2.332,7.131,2.646,9.821L522.841,260.464z M532.394,267.818c0.852,1.301,4.08,7.399,4.752,8.925l-2.377,2.466
		c-0.807-2.421-3.273-8.161-4.215-10.09L532.394,267.818z M537.64,250.508c-1.076,3.364-2.467,7.534-3.678,10.046l-2.197-0.718
		c1.076-2.646,2.332-7.041,3.004-10.045L537.64,250.508z M555.13,275.397v12.602h-3.141V275.98l-13.9,2.557l-0.539-3.14
		l14.439-2.557V247.1h3.141v25.158l5.291-0.941l0.494,3.05L555.13,275.397z M546.026,269.119c-1.525-1.614-4.754-3.901-7.4-5.382
		l1.57-2.332c2.645,1.391,5.92,3.453,7.488,5.023L546.026,269.119z M547.954,258.267c-1.436-1.704-4.484-4.126-7.041-5.785
		l1.705-2.242c2.51,1.524,5.605,3.812,7.039,5.471L547.954,258.267z"/>
	<path style="fill:#333333;" d="M578.134,273.783c3.453-1.436,5.428-3.543,5.65-6.593c-0.268,0.045-0.492,0.045-0.762,0.045
		c-1.838,0-3.363-1.076-3.363-3.184c0-2.108,1.57-3.229,3.408-3.229c2.467,0,3.812,2.019,3.812,5.157
		c0,4.844-3.051,8.521-7.76,10.181L578.134,273.783z"/>
	<path style="fill:#333333;" d="M291.708,357.236h-5.426v6.727c0,2.019-0.493,3.005-1.928,3.543
		c-1.48,0.538-3.946,0.583-7.803,0.583c-0.179-0.897-0.718-2.332-1.211-3.185c2.96,0.09,5.83,0.045,6.592,0
		c0.807,0,1.076-0.224,1.076-0.941v-6.727h-23.813v10.897h-3.273v-10.897h-5.292v-3.095h5.292v-16.906h13.364v-4.306h-16.997v-3.139
		h37.76v3.139h-17.445v4.306h13.678v16.906h5.426V357.236z M259.195,340.284v5.427h10.09v-5.427H259.195z M259.195,354.142h10.09
		v-5.516h-10.09V354.142z M272.604,340.284v5.427h10.404v-5.427H272.604z M283.008,354.142v-5.516h-10.404v5.516H283.008z"/>
	<path style="fill:#333333;" d="M304.803,334.679h14.62v2.735h-14.62V334.679z M318.66,365.309h-9.148v2.107h-2.87v-15.068h12.018
		V365.309z M318.57,343.199h-11.884v-2.646h11.884V343.199z M306.686,346.384h11.884v2.646h-11.884V346.384z M312.292,334.186
		c-0.673-1.659-2.108-4.126-3.318-6.01l2.601-1.3c1.256,1.838,2.736,4.17,3.364,5.74L312.292,334.186z M309.512,355.128v7.4h6.233
		v-7.4H309.512z M327.898,359.389c2.019-0.538,4.171-1.121,6.278-1.659l0.314,2.825c-4.934,1.524-10.136,2.96-14.127,4.126
		l-0.941-3.229c1.569-0.358,3.408-0.807,5.426-1.3v-11.84h-4.708v-3.004h12.557v3.004h-4.799V359.389z M336.912,338.984
		c0.628,14.979,2.735,25.831,5.112,25.831c0.674,0,1.076-2.287,1.211-7.311c0.719,0.718,1.75,1.48,2.512,1.794
		c-0.492,6.683-1.391,8.79-4.17,8.79c-5.022,0-7.085-12.826-7.803-29.104h-13.229v-3.14h13.095c-0.09-2.825-0.135-5.695-0.18-8.655
		h3.274c-0.045,3.005,0,5.875,0.089,8.655h8.7v3.14H336.912z M341.8,335.127c-0.718-1.524-2.377-3.991-3.946-5.785l2.331-1.3
		c1.57,1.659,3.274,3.991,4.036,5.516L341.8,335.127z"/>
	<path style="fill:#333333;" d="M358.618,334.679h14.619v2.735h-14.619V334.679z M372.476,365.309h-9.148v2.107h-2.871v-15.068
		h12.02V365.309z M372.386,343.199h-11.885v-2.646h11.885V343.199z M360.501,346.384h11.885v2.646h-11.885V346.384z
		 M366.106,334.186c-0.672-1.659-2.107-4.126-3.318-6.01l2.602-1.3c1.256,1.838,2.734,4.17,3.363,5.74L366.106,334.186z
		 M363.327,355.128v7.4h6.232v-7.4H363.327z M381.714,359.389c2.018-0.538,4.17-1.121,6.277-1.659l0.314,2.825
		c-4.934,1.524-10.135,2.96-14.127,4.126l-0.941-3.229c1.57-0.358,3.408-0.807,5.426-1.3v-11.84h-4.709v-3.004h12.557v3.004h-4.797
		V359.389z M390.728,338.984c0.627,14.979,2.734,25.831,5.111,25.831c0.674,0,1.076-2.287,1.211-7.311
		c0.719,0.718,1.75,1.48,2.512,1.794c-0.492,6.683-1.391,8.79-4.17,8.79c-5.023,0-7.086-12.826-7.803-29.104h-13.23v-3.14h13.096
		c-0.09-2.825-0.135-5.695-0.18-8.655h3.273c-0.045,3.005,0,5.875,0.09,8.655h8.699v3.14H390.728z M395.616,335.127
		c-0.719-1.524-2.377-3.991-3.947-5.785l2.332-1.3c1.57,1.659,3.273,3.991,4.035,5.516L395.616,335.127z"/>
	<path style="fill:#333333;" d="M432.478,348.491c0,0-0.045,1.031-0.045,1.436c-0.539,11.166-0.986,15.247-2.197,16.638
		c-0.764,0.896-1.525,1.166-2.871,1.255c-1.121,0.135-3.318,0.09-5.471,0c-0.09-0.896-0.404-2.152-0.941-2.915
		c2.197,0.225,4.305,0.225,5.111,0.225c0.764,0,1.121-0.09,1.525-0.493c0.807-0.897,1.256-4.306,1.66-13.14h-7.355
		c-0.986,6.502-3.094,12.691-7.803,16.593c-0.449-0.718-1.48-1.794-2.287-2.287c6.098-4.844,7.176-13.992,7.623-22.109h-4.889
		v-14.574h17.625v14.574h-9.508c-0.09,1.57-0.223,3.185-0.402,4.799H432.478z M417.634,340.733h11.391v-8.61h-11.391V340.733z
		 M439.966,357.102h-3.229v-24.665h3.229V357.102z M450.954,327.952v35.652c0,2.242-0.629,3.273-2.02,3.856
		c-1.479,0.538-3.99,0.583-8.072,0.583c-0.178-0.896-0.672-2.422-1.209-3.363c3.139,0.135,5.963,0.09,6.816,0.045
		c0.807,0,1.166-0.27,1.166-1.121v-35.652H450.954z"/>
	<path style="fill:#333333;" d="M478.399,327.638c-0.764,2.198-1.57,4.664-2.332,6.593h7.443v29.104h-12.467v3.543h-3.049V334.23
		h5.021c0.674-2.152,1.48-5.157,1.795-7.265L478.399,327.638z M480.462,337.235h-9.418v9.372h9.418V337.235z M480.462,360.33
		v-10.763h-9.418v10.763H480.462z M505.44,335.8c-0.717,20.45-1.301,27.355-3.094,29.554c-0.986,1.255-2.018,1.659-3.543,1.794
		c-1.57,0.179-4.127,0.089-6.637-0.045c-0.09-0.987-0.494-2.332-1.121-3.274c2.914,0.27,5.605,0.27,6.637,0.27
		c0.896,0,1.391-0.09,1.838-0.673c1.48-1.569,2.152-8.386,2.736-26.234h-11.391c-1.256,3.004-2.646,5.74-4.217,7.848
		c-0.582-0.538-2.018-1.435-2.734-1.884c3.004-3.946,5.426-10.135,6.861-16.278l3.184,0.762c-0.537,2.198-1.166,4.351-1.928,6.458
		h13.408V335.8z M495.53,356.025c-1.346-2.69-4.35-7.131-6.816-10.359l2.6-1.524c2.512,3.184,5.607,7.489,7.041,10.135
		L495.53,356.025z"/>
</g>
<g style="opacity:0.3;">
	<g>
		<path style="fill:#4F412F;" d="M134.006,269.631H69.491v-22.665h156.058v22.665h-64.515v190.348h-27.025V269.631H134.006z"/>
	</g>
	<g>
		<path style="fill:#4F412F;" d="M187.236,392.649h-79.337l-21.795,67.129h-24.12l72.652-212.726h26.449l72.94,212.726h-25.572
			L187.236,392.649z M181.136,373.757l-11.042-34.581c-8.142-24.122-14.824-47.079-22.089-72.067h-1.162
			c-6.975,25.279-13.95,47.947-21.796,72.067l-11.042,34.581H181.136z"/>
	</g>
</g>
<path style="fill:#333333;" d="M184.096,204.478c0,24.519-16.161,40.462-36.094,40.462c-19.933,0-36.089-14.915-36.089-40.462
	c0-29.446,16.157-53.315,36.089-53.315c18.496,0,33.742,20.552,35.846,47.045l-5.382-3.362l-1.87-1.166l-0.885,1.869l-4.442,9.404
	l-15.729-9.195l-0.649-0.377l-0.401,0.562l-6.631,9.288l-9.889-3.49l9.895,4.294l0.248,0.107l0.189-0.231l6.964-8.43l15.855,10.827
	l1.299,0.885l0.817-1.453l4.777-8.513l6.075,4.406C184.096,203.913,184.096,204.196,184.096,204.478z"/>
</svg>
