<?xml version="1.0" encoding="iso-8859-1"?>
<!-- Generator: Adobe Illustrator 18.0.0, SVG Export Plug-In . SVG Version: 6.00 Build 0)  -->
<!DOCTYPE svg PUBLIC "-//W3C//DTD SVG 1.1//EN" "http://www.w3.org/Graphics/SVG/1.1/DTD/svg11.dtd">
<svg version="1.1" xmlns="http://www.w3.org/2000/svg" xmlns:xlink="http://www.w3.org/1999/xlink" x="0px" y="0px"
	 viewBox="0 0 307.857 150" style="enable-background:new 0 0 307.857 150;" xml:space="preserve">
<g id="Layer_3">
</g>
<g id="_x32__x5F_mobile_x5F_top_x5F_van">
</g>
<g id="_x31__x5F_m_x5F_show_x5F_list" style="display:none;">
</g>
<g id="new_x5F_home_1_">
</g>
<g id="UI_SVG_icon">
	<g>
		<path style="fill:#FAFAFA;" d="M278.058,56.862c-0.105-5.484-0.917-10.837-2.443-16.132c-1.575-5.265-3.865-10.473-8.031-15.013
			c-8.053-9.279-20.166-11.834-30.698-11.611c-5.461,0.124-10.827,0.925-16.164,2.419c-5.31,1.543-10.592,3.778-15.227,7.87
			c-9.466,7.904-12.199,19.857-12.012,30.356c0.103,5.442,0.917,10.817,2.451,16.192c1.583,5.348,3.888,10.697,8.069,15.405
			c8.091,9.624,20.234,12.499,30.774,12.34c5.463-0.086,10.827-0.906,16.158-2.474c5.302-1.617,10.573-3.978,15.189-8.235
			C275.558,79.742,278.253,67.431,278.058,56.862z M210.132,74.029l21.849-39.189l21.928,30.995
			c-0.971-0.024-2.557-0.059-4.436-0.086l-16.889-24.379c-0.1-0.144-0.265-0.225-0.443-0.215c-0.176,0.011-0.333,0.11-0.414,0.265
			l-17.259,32.608H210.132z M215.616,74.003l16.61-31.382l1.77,2.554c-1.029,2.194-10.908,23.188-13.398,26.502
			C219.249,73.475,216.868,73.903,215.616,74.003z M258.85,74.037l-27.884-0.008v-3.414l30.433-0.213L258.85,74.037z M231.151,69.61
			c0.308-0.766,1.039-2.025,2.631-2.394c3.7-0.853,20.927-0.354,21.102-0.35c0.189,0.015,0.366-0.097,0.457-0.263
			c0.089-0.168,0.076-0.373-0.032-0.527l-22.41-31.673h4.119l24.395,34.996L231.151,69.61z"/>
		<g>
			<path style="fill:#FAFAFA;" d="M230.611,135.666h-3.491c-0.39,0-0.707-0.093-0.951-0.278c-0.245-0.184-0.427-0.422-0.549-0.711
				l-1.468-4.151h-8.663l-1.468,4.151c-0.101,0.25-0.275,0.476-0.527,0.682c-0.247,0.205-0.562,0.307-0.941,0.307h-3.523
				l8.498-21.745h4.601L230.611,135.666z M216.585,127.409h6.473l-2.353-6.654c-0.14-0.35-0.288-0.759-0.443-1.229
				c-0.155-0.469-0.307-0.974-0.455-1.513c-0.141,0.55-0.285,1.062-0.435,1.535c-0.149,0.475-0.293,0.887-0.433,1.237
				L216.585,127.409z"/>
			<path style="fill:#FAFAFA;" d="M244.05,123.663c-0.119,0.159-0.241,0.283-0.359,0.367c-0.122,0.085-0.289,0.128-0.51,0.128
				c-0.2,0-0.392-0.057-0.577-0.173c-0.185-0.116-0.396-0.24-0.638-0.374c-0.24-0.136-0.524-0.259-0.853-0.375
				c-0.332-0.114-0.741-0.172-1.229-0.172c-0.619,0-1.156,0.113-1.612,0.338c-0.456,0.224-0.831,0.546-1.132,0.966
				c-0.301,0.42-0.52,0.929-0.667,1.528c-0.144,0.6-0.217,1.274-0.217,2.024c0,1.577,0.317,2.786,0.949,3.627
				c0.638,0.838,1.502,1.259,2.601,1.259c0.378,0,0.709-0.032,0.983-0.097c0.272-0.065,0.514-0.147,0.72-0.247
				c0.202-0.098,0.381-0.209,0.531-0.328c0.152-0.12,0.293-0.23,0.427-0.33c0.135-0.1,0.27-0.182,0.406-0.247
				c0.135-0.064,0.286-0.096,0.455-0.096c0.32,0,0.57,0.12,0.75,0.359l1.182,1.499c-0.439,0.51-0.909,0.931-1.408,1.266
				c-0.5,0.335-1.015,0.6-1.55,0.794c-0.534,0.195-1.076,0.33-1.626,0.404c-0.55,0.075-1.093,0.113-1.634,0.113
				c-0.949,0-1.849-0.178-2.698-0.532c-0.847-0.354-1.592-0.872-2.233-1.551c-0.64-0.679-1.145-1.513-1.52-2.503
				c-0.374-0.989-0.562-2.118-0.562-3.386c0-1.13,0.167-2.178,0.494-3.147c0.331-0.969,0.816-1.808,1.455-2.517
				c0.639-0.709,1.43-1.266,2.375-1.672c0.945-0.404,2.036-0.607,3.274-0.607c1.178,0,2.212,0.19,3.101,0.569
				c0.889,0.38,1.688,0.93,2.398,1.648L244.05,123.663z"/>
			<path style="fill:#FAFAFA;" d="M258.999,135.666c-0.388,0-0.685-0.055-0.891-0.165c-0.205-0.109-0.373-0.339-0.504-0.689
				l-0.328-0.974c-0.391,0.339-0.768,0.637-1.133,0.891c-0.362,0.255-0.743,0.471-1.138,0.646c-0.394,0.175-0.815,0.307-1.259,0.397
				c-0.446,0.09-0.937,0.135-1.476,0.135c-0.679,0-1.298-0.09-1.859-0.27c-0.558-0.179-1.04-0.447-1.446-0.803
				c-0.404-0.353-0.716-0.795-0.937-1.324c-0.22-0.53-0.33-1.139-0.33-1.83c0-0.568,0.145-1.135,0.435-1.701
				c0.289-0.564,0.787-1.079,1.491-1.543c0.706-0.464,1.644-0.852,2.819-1.161c1.174-0.309,2.643-0.485,4.413-0.524v-0.794
				c0-0.969-0.205-1.681-0.614-2.136c-0.412-0.454-0.999-0.681-1.768-0.681c-0.569,0-1.044,0.067-1.424,0.201
				c-0.379,0.136-0.713,0.28-0.995,0.435c-0.286,0.155-0.554,0.3-0.802,0.434c-0.251,0.136-0.54,0.203-0.869,0.203
				c-0.291,0-0.534-0.073-0.728-0.218c-0.195-0.144-0.357-0.316-0.485-0.518l-0.734-1.319c0.909-0.819,1.913-1.431,3.01-1.836
				c1.1-0.404,2.288-0.607,3.568-0.607c0.92,0,1.742,0.151,2.465,0.45c0.725,0.3,1.34,0.717,1.843,1.251
				c0.504,0.535,0.892,1.171,1.161,1.911c0.271,0.74,0.406,1.549,0.406,2.428v9.711H258.999L258.999,135.666z M253.561,133.119
				c0.679,0,1.274-0.122,1.78-0.367c0.512-0.245,1.016-0.623,1.516-1.132v-2.398c-1.009,0.04-1.85,0.124-2.518,0.255
				c-0.669,0.13-1.201,0.292-1.597,0.488c-0.393,0.194-0.675,0.419-0.837,0.673c-0.165,0.255-0.247,0.532-0.247,0.832
				c0,0.6,0.166,1.025,0.501,1.275S252.961,133.119,253.561,133.119z"/>
		</g>
	</g>
	<g style="opacity:0.3;">
		<path d="M148.791,74.844l-10.758-10.76l3.6-3.6l10.766,10.753l11.551-11.552l3.863,3.861l-11.559,11.559l10.766,10.752
			l-3.607,3.607l-10.758-10.758l-11.607,11.607l-3.857-3.87L148.791,74.844z"/>
	</g>
	<g>
		<path style="fill:#FFFFFF;" d="M110.478,77.959c0,25.403-20.597,46-46.002,46c-25.405,0-45.998-20.597-45.998-46
			c0-25.408,20.593-46.003,45.998-46.003C89.881,31.956,110.478,52.551,110.478,77.959z"/>
		<g>
			<path style="fill:#C1002F;" d="M46.703,83.706c-1.03,1.645-2.06,3.29-3.087,4.937c-1.754,2.796-3.502,5.599-5.256,8.394
				c-0.605,0.964-1.202,1.93-1.8,2.901c7.075-0.669,14.972-1.715,18.471-2.62c0.258-4.203,0.537-7.728,1.595-12.657L46.703,83.706z"
				/>
			<path style="fill:#C7900E;" d="M69.35,65.612l-7.524,12.7c0,0,12.368-0.363,19.247-4.945c2.877-1.916,5.516-5.211,7.263-8.257
				c2.613-4.579,4.272-9.727,5.017-14.991C93.353,50.119,83.694,57.242,69.35,65.612"/>
			<path style="fill:#111820;" d="M62.965,87.505c-0.44-1.779-3.332-3.847-3.332-3.847s-2.705,10.51-3.488,14.471
				c-0.639,3.234,4.388,7.173,6.989,7.666c1.057-1.858,1.815-3.855,1.948-5.896C64.572,96.083,62.965,87.505,62.965,87.505"/>
			<path style="fill:#111820;" d="M56.555,66.724c1.023-1.385,4.263,0.6,5.641,3.334c1.373,2.74-2.963,9.61-2.963,9.61
				s-4.435-2.546-5.006-4.977C53.659,72.257,55.537,68.107,56.555,66.724"/>
			<path style="fill:#C7900E;" d="M53.639,74.826c-0.314-1.34,0.037-3.003,0.446-4.287c-12.01-0.611-20.305-3.831-20.305-3.831
				c2.613,7.874,9.7,12.91,17.972,12.543c0.946-0.042,3.05-0.382,4.754-0.74C54.867,77.2,53.905,75.958,53.639,74.826"/>
			<path style="fill:#C1002F;" d="M85.884,103.757L72.329,78.748l-11.7,2.95c0.217,0.833,0.395,1.635,0.552,2.427
				c0.919,0.826,2.076,2.047,2.371,3.234l0.003,0.016l0.003,0.018c0.018,0.088,1.616,8.635,2.116,12.422l0.008,0.061l-0.003,0.059
				c-0.031,0.499-0.101,1.009-0.207,1.529C71.805,102.73,80.868,103.94,85.884,103.757"/>
		</g>
	</g>
</g>
</svg>
