<?xml version="1.0" encoding="iso-8859-1"?>
<!-- Generator: Adobe Illustrator 18.0.0, SVG Export Plug-In . SVG Version: 6.00 Build 0)  -->
<!DOCTYPE svg PUBLIC "-//W3C//DTD SVG 1.1//EN" "http://www.w3.org/Graphics/SVG/1.1/DTD/svg11.dtd">
<svg version="1.1" xmlns="http://www.w3.org/2000/svg" xmlns:xlink="http://www.w3.org/1999/xlink" x="0px" y="0px"
	 viewBox="0 0 620 500" style="enable-background:new 0 0 620 500;" xml:space="preserve">
<g id="bg">
</g>
<g id="_x32__x5F_m_x5F_main">
</g>
<g id="_x31__x5F_m_x5F_show" style="display:none;">
</g>
<g id="_x31__x5F_new_x5F_home">
</g>
<g id="_x32__x5F_menu">
</g>
<g id="_x33__x5F_search">
</g>
<g id="no_x5F_noews">
	<g>
		<g>
			<path style="fill:#CED0D1;" d="M389.467,18.284c-11.955,0-21.748,11.942-21.748,27.151c0,15.198,9.793,27.151,21.748,27.151
				c4.365,0,8.567-2.174,12.938-5.441c-1.094-3.256-2.05-6.512-2.05-10.839c0-9.778,3.107-17.531,7.468-25.135
				c-3.256-7.593-10.723-12.897-18.355-12.897V18.284z M476.471,18.284c-7.6,0-15.088,5.292-18.349,12.907
				c4.361,7.604,7.483,15.347,7.483,25.114c0,4.348-0.961,7.615-2.039,10.86c4.334,3.246,8.55,5.42,12.905,5.42
				c11.971,0,21.765-11.932,21.765-27.14c0-15.198-9.794-27.14-21.765-27.14V18.284z M432.974,29.155
				c-12.014,0-21.738,12.143-21.738,27.151c0,14.975,9.724,27.14,21.738,27.14c12.014,0,21.759-12.165,21.759-27.14
				C454.734,41.298,444.988,29.155,432.974,29.155z M366.704,72.586c-10.871,1.082-20.734,9.768-20.734,21.71v21.731H378.6v-10.871
				c0-8.686,3.399-16.29,8.832-21.71C379.827,82.353,372.153,79.087,366.704,72.586L366.704,72.586z M499.255,72.586
				c-5.433,6.501-13.118,9.768-20.734,10.86c5.438,5.419,8.848,13.024,8.848,21.71v10.871H520V94.295
				c0-11.942-9.862-20.628-20.734-21.71H499.255z M410.201,83.446c-10.867,1.082-20.734,9.757-20.734,21.71v21.72h87.004v-21.72
				c0-11.953-9.852-20.628-20.734-21.71c-6.511,6.512-14.063,10.849-22.763,10.849C424.285,94.295,416.728,89.958,410.201,83.446z"
				/>
		</g>
		<g>
			<path style="fill:#4D4133;" d="M134.232,31.773H8.789C3.944,31.773,0,35.71,0,40.548v19.902c0,4.838,3.944,8.776,8.789,8.776
				h1.658v69.755c0,4.839,3.943,8.776,8.789,8.776h104.548c4.846,0,8.789-3.937,8.789-8.776V69.226h1.658
				c4.846,0,8.789-3.938,8.789-8.776V40.558C143.03,35.72,139.077,31.773,134.232,31.773z M7.033,60.451V40.558
				c0-0.97,0.785-1.763,1.756-1.763h50.018v23.409H13.969h-5.18C7.818,62.204,7.033,61.42,7.033,60.451z M17.48,138.981V69.226
				h41.327v71.508H19.246C18.275,140.735,17.48,139.951,17.48,138.981z M125.54,138.981c0,0.97-0.794,1.753-1.756,1.753H84.214
				V69.236h41.327V138.981z M135.988,60.451c0,0.969-0.785,1.763-1.756,1.763h-5.18H84.214V38.795h50.018
				c0.971,0,1.756,0.793,1.756,1.763V60.451z"/>
			<path style="fill:#4D4133;" d="M68.508,28.286c1.736,0,2.747-0.03,2.747-0.03c0.039,0,0.078-0.02,0.078-0.02
				c0.069,0,0.108,0.02,0.108,0.02s1.079,0.03,2.845,0.03c5.425,0,15.94-0.255,25.406-1.959
				c13.527-2.439,20.384-7.189,20.384-14.143C120.077,4.779,114.387,0,105.568,0c-8.75,0-22.562,5.132-34.176,19.255
				C59.974,5.132,46.398,0,37.785,0c-8.691,0-14.312,4.779-14.312,12.184C23.474,19.53,31.292,28.286,68.508,28.286z M105.568,7.032
				c2.796,0,7.475,0.666,7.475,5.152c0,2.879-5.454,5.583-14.606,7.228c-6.72,1.215-14.223,1.645-19.423,1.782
				C88.039,11.459,98.437,7.032,105.568,7.032z M37.785,7.032c6.994,0,17.186,4.427,26.034,14.173
				c-19.56-0.5-33.313-4.143-33.313-9.021C30.507,7.698,35.068,7.032,37.785,7.032z"/>
		</g>
		<g>
			<line style="fill:#CED0D1;" x1="254.371" y1="2.59" x2="254.371" y2="147.565"/>
			<path style="fill:#A4A6A9;" d="M254.371,150c-1.387,0-2.511-1.09-2.511-2.435V2.59c0-1.345,1.124-2.435,2.511-2.435
				s2.511,1.09,2.511,2.435v144.974C256.882,148.91,255.758,150,254.371,150z"/>
		</g>
	</g>
	<g>
		<g>
			<path style="fill:#4D4133;" d="M389.467,268.284c-11.955,0-21.748,11.942-21.748,27.151c0,15.198,9.793,27.151,21.748,27.151
				c4.365,0,8.567-2.174,12.938-5.441c-1.094-3.256-2.05-6.512-2.05-10.839c0-9.778,3.107-17.531,7.468-25.135
				c-3.256-7.593-10.723-12.897-18.355-12.897V268.284z M476.471,268.284c-7.6,0-15.088,5.292-18.349,12.907
				c4.361,7.604,7.483,15.347,7.483,25.114c0,4.348-0.961,7.615-2.039,10.86c4.334,3.246,8.55,5.42,12.905,5.42
				c11.971,0,21.765-11.932,21.765-27.14c0-15.198-9.794-27.14-21.765-27.14V268.284z M432.974,279.155
				c-12.014,0-21.738,12.143-21.738,27.151c0,14.975,9.724,27.14,21.738,27.14c12.014,0,21.759-12.165,21.759-27.14
				C454.734,291.298,444.988,279.155,432.974,279.155z M366.704,322.586c-10.871,1.082-20.734,9.768-20.734,21.71v21.731H378.6
				v-10.871c0-8.686,3.399-16.29,8.832-21.71C379.827,332.353,372.153,329.087,366.704,322.586L366.704,322.586z M499.255,322.586
				c-5.433,6.501-13.118,9.768-20.734,10.86c5.438,5.419,8.848,13.024,8.848,21.71v10.871H520v-21.731
				c0-11.942-9.862-20.628-20.734-21.71H499.255z M410.201,333.446c-10.867,1.082-20.734,9.757-20.734,21.71v21.72h87.004v-21.72
				c0-11.953-9.852-20.628-20.734-21.71c-6.511,6.512-14.063,10.849-22.763,10.849C424.285,344.295,416.728,339.958,410.201,333.446
				z"/>
		</g>
		<g>
			<path style="fill:#CED0D1;" d="M134.232,281.773H8.789c-4.846,0-8.789,3.938-8.789,8.776v19.902c0,4.838,3.944,8.776,8.789,8.776
				h1.658v69.755c0,4.839,3.943,8.776,8.789,8.776h104.548c4.846,0,8.789-3.937,8.789-8.776v-69.755h1.658
				c4.846,0,8.789-3.938,8.789-8.776v-19.892C143.03,285.72,139.077,281.773,134.232,281.773z M7.033,310.451v-19.892
				c0-0.97,0.785-1.763,1.756-1.763h50.018v23.409H13.969h-5.18C7.818,312.204,7.033,311.42,7.033,310.451z M17.48,388.981v-69.755
				h41.327v71.508H19.246C18.275,390.735,17.48,389.951,17.48,388.981z M125.54,388.981c0,0.97-0.794,1.753-1.756,1.753H84.214
				v-71.499h41.327V388.981z M135.988,310.451c0,0.969-0.785,1.763-1.756,1.763h-5.18H84.214v-23.418h50.018
				c0.971,0,1.756,0.793,1.756,1.763V310.451z"/>
			<path style="fill:#CED0D1;" d="M68.508,278.286c1.736,0,2.747-0.03,2.747-0.03c0.039,0,0.078-0.02,0.078-0.02
				c0.069,0,0.108,0.02,0.108,0.02s1.079,0.03,2.845,0.03c5.425,0,15.94-0.255,25.406-1.959
				c13.527-2.439,20.384-7.189,20.384-14.143c0-7.405-5.689-12.184-14.508-12.184c-8.75,0-22.562,5.132-34.176,19.255
				C59.974,255.132,46.398,250,37.785,250c-8.691,0-14.312,4.779-14.312,12.184C23.474,269.53,31.292,278.286,68.508,278.286z
				 M105.568,257.032c2.796,0,7.475,0.666,7.475,5.152c0,2.879-5.454,5.583-14.606,7.228c-6.72,1.215-14.223,1.645-19.423,1.782
				C88.039,261.459,98.437,257.032,105.568,257.032z M37.785,257.032c6.994,0,17.186,4.427,26.034,14.173
				c-19.56-0.5-33.313-4.143-33.313-9.021C30.507,257.698,35.068,257.032,37.785,257.032z"/>
		</g>
		<g>
			<line style="fill:#CED0D1;" x1="254.371" y1="252.59" x2="254.371" y2="397.565"/>
			<path style="fill:#A4A6A9;" d="M254.371,400c-1.387,0-2.511-1.09-2.511-2.435V252.59c0-1.345,1.124-2.435,2.511-2.435
				s2.511,1.09,2.511,2.435v144.974C256.882,398.91,255.758,400,254.371,400z"/>
		</g>
	</g>
</g>
<g id="menu">
</g>
<g id="campaign">
</g>
<g id="box_x5F_slice" style="display:none;">
</g>
</svg>
