<?xml version="1.0" encoding="iso-8859-1"?>
<!-- Generator: Adobe Illustrator 18.0.0, SVG Export Plug-In . SVG Version: 6.00 Build 0)  -->
<!DOCTYPE svg PUBLIC "-//W3C//DTD SVG 1.1//EN" "http://www.w3.org/Graphics/SVG/1.1/DTD/svg11.dtd">
<svg version="1.1" xmlns="http://www.w3.org/2000/svg" xmlns:xlink="http://www.w3.org/1999/xlink" x="0px" y="0px"
	 viewBox="0 0 1040 154" style="enable-background:new 0 0 1040 154;" xml:space="preserve">
<g id="bg">
</g>
<g id="_x32__x5F_m_x5F_main">
</g>
<g id="_x31__x5F_m_x5F_show" style="display:none;">
</g>
<g id="_x31__x5F_new_x5F_home">
</g>
<g id="_x32__x5F_menu">
</g>
<g id="_x33__x5F_search">
</g>
<g id="no_x5F_noews">
	<g>
		<g>
			<g>
				<path style="fill:#CED0D1;" d="M390.399,22.756c-11.87,0-21.593,11.875-21.593,26.998c0,15.112,9.723,26.998,21.593,26.998
					c4.334,0,8.505-2.162,12.845-5.41c-1.086-3.238-2.036-6.475-2.036-10.778c0-9.724,3.085-17.433,7.414-24.994
					c-3.233-7.551-10.646-12.824-18.224-12.824V22.756z M476.782,22.756c-7.545,0-14.981,5.262-18.218,12.834
					c4.329,7.562,7.43,15.26,7.43,24.973c0,4.324-0.955,7.572-2.025,10.799c4.303,3.227,8.489,5.389,12.813,5.389
					c11.886,0,21.609-11.865,21.609-26.988c0-15.112-9.724-26.987-21.609-26.987V22.756z M433.596,33.566
					c-11.928,0-21.583,12.075-21.583,26.998c0,14.891,9.655,26.988,21.583,26.988S455.2,75.455,455.2,60.564
					C455.2,45.641,445.524,33.566,433.596,33.566z M367.799,76.752c-10.794,1.076-20.586,9.713-20.586,21.588v21.609h32.398v-10.81
					c0-8.637,3.375-16.199,8.769-21.588C380.829,86.465,373.209,83.217,367.799,76.752L367.799,76.752z M499.404,76.752
					c-5.394,6.464-13.024,9.713-20.586,10.799c5.4,5.389,8.785,12.95,8.785,21.588v10.81H520V98.34
					c0-11.875-9.792-20.512-20.586-21.588H499.404z M410.985,87.551c-10.789,1.076-20.586,9.702-20.586,21.588v21.598h86.383
					v-21.598c0-11.886-9.781-20.512-20.586-21.588c-6.464,6.475-13.963,10.788-22.6,10.788
					C424.969,98.34,417.466,94.027,410.985,87.551z"/>
			</g>
			<g>
				<path style="fill:#4D4133;" d="M133.273,36.169H8.726C3.915,36.169,0,40.084,0,44.895v19.79c0,4.811,3.915,8.726,8.726,8.726
					h1.646v69.363c0,4.811,3.915,8.726,8.726,8.726H122.9c4.811,0,8.726-3.915,8.726-8.726V73.412h1.646
					c4.811,0,8.726-3.915,8.726-8.726V44.905C142.009,40.094,138.084,36.169,133.273,36.169z M6.983,64.686V44.905
					c0-0.964,0.779-1.753,1.743-1.753h49.661v23.277H13.869H8.726C7.762,66.429,6.983,65.649,6.983,64.686z M17.356,142.775V73.412
					h41.032v71.106H19.108C18.144,144.518,17.356,143.739,17.356,142.775z M124.643,142.775c0,0.964-0.789,1.743-1.743,1.743H83.612
					V73.421h41.032V142.775z M135.016,64.686c0,0.964-0.779,1.753-1.743,1.753h-5.143H83.612V43.152h49.661
					c0.964,0,1.743,0.789,1.743,1.753V64.686z"/>
				<path style="fill:#4D4133;" d="M68.019,32.702c1.724,0,2.727-0.029,2.727-0.029c0.039,0,0.078-0.019,0.078-0.019
					c0.068,0,0.107,0.019,0.107,0.019s1.072,0.029,2.824,0.029c5.386,0,15.826-0.253,25.225-1.948
					c13.431-2.425,20.238-7.149,20.238-14.063c0-7.363-5.649-12.116-14.405-12.116c-8.688,0-22.4,5.103-33.932,19.147
					C59.546,9.678,46.067,4.575,37.516,4.575c-8.629,0-14.21,4.753-14.21,12.116C23.306,23.995,31.068,32.702,68.019,32.702z
					 M104.814,11.567c2.776,0,7.421,0.662,7.421,5.123c0,2.863-5.415,5.551-14.502,7.188c-6.671,1.208-14.122,1.636-19.284,1.772
					C87.41,15.969,97.734,11.567,104.814,11.567z M37.516,11.567c6.944,0,17.063,4.402,25.848,14.093
					c-19.42-0.497-33.075-4.12-33.075-8.97C30.289,12.229,34.818,11.567,37.516,11.567z"/>
			</g>
			
				<line style="fill:#CED0D1;stroke:#A4A6A9;stroke-width:4.9865;stroke-linecap:round;stroke-miterlimit:10;" x1="254.282" y1="2.499" x2="254.282" y2="150.974"/>
		</g>
		<g>
			<g>
				<path style="fill:#4D4133;" d="M910.399,22.756c-11.87,0-21.593,11.875-21.593,26.998c0,15.112,9.723,26.998,21.593,26.998
					c4.334,0,8.505-2.162,12.845-5.41c-1.086-3.238-2.036-6.475-2.036-10.778c0-9.724,3.085-17.433,7.414-24.994
					c-3.233-7.551-10.646-12.824-18.224-12.824V22.756z M996.782,22.756c-7.545,0-14.981,5.262-18.218,12.834
					c4.329,7.562,7.43,15.26,7.43,24.973c0,4.324-0.955,7.572-2.025,10.799c4.303,3.227,8.489,5.389,12.813,5.389
					c11.886,0,21.609-11.865,21.609-26.988c0-15.112-9.724-26.987-21.609-26.987V22.756z M953.596,33.566
					c-11.928,0-21.583,12.075-21.583,26.998c0,14.891,9.655,26.988,21.583,26.988c11.928,0,21.604-12.097,21.604-26.988
					C975.2,45.641,965.524,33.566,953.596,33.566z M887.799,76.752c-10.794,1.076-20.586,9.713-20.586,21.588v21.609h32.398v-10.81
					c0-8.637,3.375-16.199,8.77-21.588C900.829,86.465,893.209,83.217,887.799,76.752L887.799,76.752z M1019.404,76.752
					c-5.394,6.464-13.024,9.713-20.586,10.799c5.4,5.389,8.785,12.95,8.785,21.588v10.81H1040V98.34
					c0-11.875-9.792-20.512-20.586-21.588H1019.404z M930.985,87.551c-10.789,1.076-20.586,9.702-20.586,21.588v21.598h86.383
					v-21.598c0-11.886-9.781-20.512-20.586-21.588c-6.464,6.475-13.963,10.788-22.6,10.788
					C944.969,98.34,937.466,94.027,930.985,87.551z"/>
			</g>
			<g>
				<path style="fill:#CED0D1;" d="M653.273,36.169H528.726c-4.811,0-8.726,3.915-8.726,8.726v19.79
					c0,4.811,3.915,8.726,8.726,8.726h1.646v69.363c0,4.811,3.915,8.726,8.726,8.726H642.9c4.811,0,8.726-3.915,8.726-8.726V73.412
					h1.646c4.811,0,8.726-3.915,8.726-8.726V44.905C662.009,40.094,658.084,36.169,653.273,36.169z M526.983,64.686V44.905
					c0-0.964,0.779-1.753,1.743-1.753h49.661v23.277h-44.518h-5.143C527.762,66.429,526.983,65.649,526.983,64.686z
					 M537.356,142.775V73.412h41.032v71.106h-39.279C538.144,144.518,537.356,143.739,537.356,142.775z M644.643,142.775
					c0,0.964-0.789,1.743-1.743,1.743h-39.288V73.421h41.032V142.775z M655.016,64.686c0,0.964-0.779,1.753-1.743,1.753h-5.143
					h-44.518V43.152h49.661c0.964,0,1.743,0.789,1.743,1.753V64.686z"/>
				<path style="fill:#CED0D1;" d="M588.019,32.702c1.724,0,2.727-0.029,2.727-0.029c0.039,0,0.078-0.019,0.078-0.019
					c0.068,0,0.107,0.019,0.107,0.019s1.072,0.029,2.824,0.029c5.386,0,15.826-0.253,25.225-1.948
					c13.431-2.425,20.238-7.149,20.238-14.063c0-7.363-5.649-12.116-14.405-12.116c-8.688,0-22.4,5.103-33.932,19.147
					C579.546,9.678,566.067,4.575,557.516,4.575c-8.629,0-14.21,4.753-14.21,12.116C543.306,23.995,551.068,32.702,588.019,32.702z
					 M624.814,11.567c2.776,0,7.421,0.662,7.421,5.123c0,2.863-5.415,5.551-14.502,7.188c-6.671,1.208-14.122,1.636-19.284,1.772
					C607.41,15.969,617.734,11.567,624.814,11.567z M557.516,11.567c6.944,0,17.063,4.402,25.848,14.093
					c-19.42-0.497-33.075-4.12-33.075-8.97C550.289,12.229,554.818,11.567,557.516,11.567z"/>
			</g>
			
				<line style="fill:#CED0D1;stroke:#A4A6A9;stroke-width:4.9865;stroke-linecap:round;stroke-miterlimit:10;" x1="774.282" y1="2.499" x2="774.282" y2="150.974"/>
		</g>
	</g>
</g>
<g id="menu">
</g>
<g id="campaign">
</g>
<g id="box_x5F_slice" style="display:none;">
</g>
</svg>
