<?xml version="1.0" encoding="iso-8859-1"?>
<!-- Generator: Adobe Illustrator 16.0.4, SVG Export Plug-In . SVG Version: 6.00 Build 0)  -->
<!DOCTYPE svg PUBLIC "-//W3C//DTD SVG 1.1//EN" "http://www.w3.org/Graphics/SVG/1.1/DTD/svg11.dtd">
<svg version="1.1" id="Layer_1" xmlns="http://www.w3.org/2000/svg" xmlns:xlink="http://www.w3.org/1999/xlink" x="0px" y="0px"
	 width="150px" height="150.007px" viewBox="0 0 150 150.007" style="enable-background:new 0 0 150 150.007;" xml:space="preserve"
	>
<g>
	<path style="fill:#FFFFFF;" d="M150,75.007c0,41.417-33.58,75-75,75c-41.424,0-75-33.583-75-75C0,33.581,33.576,0,75,0
		C116.42,0,150,33.581,150,75.007z"/>
	<g>
		<path style="fill:#C3002F;" d="M46.02,84.377c-1.681,2.682-3.358,5.367-5.033,8.05c-2.858,4.558-5.711,9.126-8.569,13.684
			c-0.987,1.57-1.963,3.147-2.936,4.729c11.536-1.092,24.413-2.795,30.113-4.27c0.425-6.855,0.879-12.604,2.605-20.638L46.02,84.377
			z"/>
		<path style="fill:#C9920E;" d="M82.942,54.876L70.675,75.579c0,0,20.165-0.589,31.384-8.057
			c4.691-3.125,8.991-8.496,11.839-13.467c4.265-7.464,6.967-15.86,8.181-24.443C122.078,29.612,106.333,41.229,82.942,54.876"/>
		<path style="fill:#111820;" d="M72.535,90.571c-0.718-2.9-5.433-6.272-5.433-6.272s-4.411,17.135-5.688,23.595
			c-1.039,5.271,7.157,11.693,11.395,12.499c1.721-3.032,2.956-6.288,3.173-9.614C75.155,104.556,72.535,90.571,72.535,90.571"/>
		<path style="fill:#111820;" d="M62.086,56.687c1.664-2.255,6.95,0.979,9.193,5.435c2.238,4.471-4.832,15.67-4.832,15.67
			s-7.229-4.15-8.159-8.113C57.361,65.71,60.422,58.943,62.086,56.687"/>
		<path style="fill:#C9920E;" d="M57.326,69.899c-0.511-2.185,0.062-4.897,0.729-6.991c-19.58-0.997-33.11-6.248-33.11-6.248
			c4.265,12.842,15.819,21.053,29.308,20.451c1.544-0.068,4.97-0.622,7.751-1.206C59.332,73.767,57.761,71.745,57.326,69.899"/>
		<path style="fill:#C3002F;" d="M109.903,117.07L87.8,76.292l-19.078,4.812c0.352,1.359,0.65,2.668,0.904,3.958
			c1.498,1.345,3.385,3.337,3.865,5.273l0.005,0.028l0.006,0.027c0.025,0.142,2.635,14.077,3.452,20.257l0.011,0.095l-0.006,0.098
			c-0.052,0.815-0.166,1.647-0.336,2.495C86.947,115.396,101.724,117.366,109.903,117.07"/>
	</g>
</g>
</svg>
