<?xml version="1.0" encoding="iso-8859-1"?>
<!-- Generator: Adobe Illustrator 16.0.4, SVG Export Plug-In . SVG Version: 6.00 Build 0)  -->
<!DOCTYPE svg PUBLIC "-//W3C//DTD SVG 1.1//EN" "http://www.w3.org/Graphics/SVG/1.1/DTD/svg11.dtd">
<svg version="1.1" id="Layer_1" xmlns="http://www.w3.org/2000/svg" xmlns:xlink="http://www.w3.org/1999/xlink" x="0px" y="0px"
	 width="100px" height="101px" viewBox="0 0 100 101" style="enable-background:new 0 0 100 101;" xml:space="preserve">
<g>
	<path style="fill:#4D4133;" d="M25.494,19.881c-6.731,0-12.247,6.735-12.247,15.312c0,8.572,5.515,15.312,12.247,15.312
		c2.459,0,4.824-1.227,7.286-3.068c-0.616-1.837-1.154-3.672-1.154-6.112c0-5.516,1.752-9.889,4.205-14.177
		c-1.831-4.283-6.039-7.273-10.336-7.273V19.881z M74.488,19.881c-4.279,0-8.494,2.984-10.333,7.28
		c2.456,4.288,4.214,8.654,4.214,14.164c0,2.451-0.542,4.294-1.148,6.125c2.441,1.829,4.816,3.056,7.268,3.056
		c6.741,0,12.256-6.729,12.256-15.306c0-8.572-5.516-15.307-12.256-15.307V19.881z M49.994,26.012
		c-6.765,0-12.241,6.85-12.241,15.313c0,8.444,5.476,15.306,12.241,15.306s12.253-6.861,12.253-15.306
		C62.247,32.861,56.759,26.012,49.994,26.012z M12.675,50.506C6.554,51.116,1,56.014,1,62.75v12.256h18.375v-6.131
		c0-4.899,1.914-9.188,4.973-12.244C20.069,56.014,15.744,54.173,12.675,50.506L12.675,50.506z M87.318,50.506
		c-3.06,3.667-7.388,5.508-11.676,6.125c3.062,3.057,4.982,7.345,4.982,12.244v6.131H99V62.75c0-6.736-5.554-11.634-11.676-12.244
		H87.318z M37.169,56.631c-6.119,0.611-11.676,5.502-11.676,12.244v12.25h48.994v-12.25c0-6.742-5.548-11.633-11.675-12.244
		c-3.667,3.674-7.92,6.119-12.818,6.119C45.101,62.75,40.845,60.305,37.169,56.631z"/>
</g>
</svg>
