<?xml version="1.0" encoding="iso-8859-1"?>
<!-- Generator: Adobe Illustrator 16.0.4, SVG Export Plug-In . SVG Version: 6.00 Build 0)  -->
<!DOCTYPE svg PUBLIC "-//W3C//DTD SVG 1.1//EN" "http://www.w3.org/Graphics/SVG/1.1/DTD/svg11.dtd">
<svg version="1.1" id="Layer_1" xmlns="http://www.w3.org/2000/svg" xmlns:xlink="http://www.w3.org/1999/xlink" x="0px" y="0px"
	 width="100px" height="100px" viewBox="0 0 100 100" style="enable-background:new 0 0 100 100;" xml:space="preserve">
<g>
	<path style="fill:#4D4133;" d="M91.536,22.073H8.464c-3.209,0-5.821,2.612-5.821,5.821v13.199c0,3.209,2.611,5.82,5.821,5.82h1.098
		v46.267c0,3.209,2.611,5.819,5.821,5.819h69.236c3.209,0,5.82-2.61,5.82-5.819V46.914h1.098c3.209,0,5.821-2.611,5.821-5.82V27.9
		C97.363,24.691,94.745,22.073,91.536,22.073z M7.301,41.094V27.9c0-0.643,0.52-1.17,1.163-1.17h33.124v15.527H11.894h-3.43
		C7.821,42.258,7.301,41.736,7.301,41.094z M14.219,93.181V46.914h27.368v47.429H15.389C14.746,94.343,14.219,93.822,14.219,93.181z
		 M85.78,93.181c0,0.642-0.526,1.162-1.162,1.162H58.412V46.922H85.78V93.181z M92.698,41.094c0,0.643-0.519,1.17-1.163,1.17h-3.43
		H58.412V26.73h33.124c0.644,0,1.163,0.527,1.163,1.17V41.094z"/>
	<path style="fill:#4D4133;" d="M48.012,19.761c1.15,0,1.819-0.019,1.819-0.019c0.026,0,0.052-0.014,0.071-0.014
		c0.026,0,0.053,0.014,0.078,0.014c0,0,0.689,0.019,1.858,0.019c3.593,0,10.557-0.169,16.826-1.3
		c8.958-1.617,13.499-4.768,13.499-9.38C82.162,4.17,78.394,1,72.554,1c-5.793,0-14.94,3.404-22.632,12.771
		C42.36,4.404,33.37,1,27.667,1c-5.756,0-9.478,3.17-9.478,8.081C18.188,13.953,23.366,19.761,48.012,19.761z M72.554,5.664
		c1.853,0,4.95,0.442,4.95,3.417c0,1.91-3.612,3.703-9.672,4.794c-4.45,0.807-9.42,1.092-12.862,1.183
		C60.946,8.6,67.832,5.664,72.554,5.664z M27.667,5.664c4.631,0,11.381,2.936,17.24,9.4c-12.953-0.331-22.061-2.748-22.061-5.983
		C22.846,6.106,25.867,5.664,27.667,5.664z"/>
</g>
</svg>
