<?xml version="1.0" encoding="utf-8"?>
<!-- Generator: Adobe Illustrator 16.0.4, SVG Export Plug-In . SVG Version: 6.00 Build 0)  -->
<!DOCTYPE svg PUBLIC "-//W3C//DTD SVG 1.1//EN" "http://www.w3.org/Graphics/SVG/1.1/DTD/svg11.dtd">
<svg version="1.1" id="Layer_1" xmlns="http://www.w3.org/2000/svg" xmlns:xlink="http://www.w3.org/1999/xlink" x="0px" y="0px"
	 width="800px" height="800px" viewBox="0 0 800 800" enable-background="new 0 0 800 800" xml:space="preserve">
<g>
	<path fill="#F1CF00" d="M794.5,738.947c0,30.629-23.938,56.553-54.58,56.553H61.026C30.382,795.5,4.5,769.576,4.5,738.947V60.054
		C4.5,29.425,30.382,5.5,61.026,5.5H739.92c30.642,0,54.58,23.925,54.58,54.554V738.947z"/>
	<g>
		<path d="M379.256,362.132c0,9.172-6.954,16.149-16.125,16.149H166.432c-9.171,0-16.276-6.978-16.276-16.149V165.433
			c0-9.172,7.106-16.251,16.276-16.251h196.699c9.171,0,16.125,7.08,16.125,16.251V362.132z"/>
		<path d="M651.807,362.04c0,9.222-6.981,16.241-16.061,16.241H438.717c-9.081,0-16.011-7.019-16.011-16.241V165.524
			c0-9.222,6.93-16.343,16.011-16.343h197.029c9.078,0,16.061,7.121,16.061,16.343V362.04z"/>
		<path d="M380.244,635.214c0,9.171-7.435,16.604-16.606,16.604H166.762c-9.171,0-16.605-7.434-16.605-16.604V438.337
			c0-9.172,7.435-16.605,16.605-16.605h196.876c9.171,0,16.606,7.434,16.606,16.605V635.214z"/>
		<path d="M651.807,634.773c0,9.064-6.981,16.058-16.061,16.058H438.717c-9.081,0-16.011-6.993-16.011-16.058V437.688
			c0-9.064,6.93-15.956,16.011-15.956h197.029c9.078,0,16.061,6.892,16.061,15.956V634.773z"/>
	</g>
</g>
</svg>
